<svg xmlns="http://www.w3.org/2000/svg" viewBox="0 0 595.3 186.6" xmlns:v="https://vecta.io/nano">
	<g fill="#cdd6f4">
		<path
			d="M140.3 831.4c-1.6 0-2.9-.5-4-1.6-.9-.9-1-1.9-.4-3.1l2.4-4.7c.9-1.9 1.5-3.9 2.1-6.3.7-2.5 1.2-5 1.6-7.8.1-.6.2-1.2.4-1.8.2-.7.3-1.5.4-2.2l.1-.5.4-2.2c.1-.3.1-.7.2-1.1 0-.4.1-.8.2-1.3.4-1.5 1-3.1 1.6-4.8l.3-.8c.2-.6.4-1.2.8-1.9.2-.4.4-.9.5-1.4l.3-1c.1-.2.1-.5.2-.9.1-.6.2-1.2.6-1.8v-.4-2.1-5c0-.3-.1-.6-.2-1s-.2-.7-.2-1.1v-1.5-.9c-.1-2.3.6-4.3 1.3-6.3l.1-.3c.9-2.6 2-5.3 3.6-8.5l.4-.9c.8-1.5 1.5-3 1.9-4.5.1-.2.2-.5.2-.8.2-.7.4-1.3.4-2-.2-1.6.2-3.1.6-4.6.1-.4.3-.9.4-1.3.1-.3.1-.6.1-.9v-.4a62.81 62.81 0 0 0-7-.4h-3.8-3.8-1.8-.5c-1.6 0-2.9.1-4 .4l-.8.2c-1.2.3-2.3.5-3.3.9-2.4.9-5.2 2.2-7.4 4.4-1.8 1.9-3.5 3.6-4.6 5.7-1.8 3.6-3 6.9-3.8 10.1-.1.5-.3 1-.4 1.5-.2.6-.4 1.1-.5 1.6l-.5 2.5c-.1.5-.5.8-1 .8s-.9-.4-1-.9l-.3-2.2c-.3-1.7-.5-3.4-.2-5 .1-.6.1-1.3.2-2 0-.9 0-1.8.3-2.7.1-.4.2-.9.2-1.4.1-.6.1-1.3.4-2 .3-.9.6-1.9.9-2.9.4-1.8.9-3.2 1.4-4.5.9-2.4 2-4.8 3.1-7.1l.1-.2c1.6-3.4 3.6-6.5 5.6-9.5l.7-1.1c.6-1 1.4-1.8 2.1-2.7.6-.7 1.1-1.3 1.6-2 1-1.3 2.1-2.5 3.2-3.6.6-.6 1.1-1.1 1.6-1.7.3-.4.6-.7.9-1.1.4-.5.9-1 1.3-1.5.3-.4.7-.6 1.1-.9.2-.1.3-.2.5-.4l.9-.9.2-.2c.7-.8 1.4-1.5 2-2.3 2.1-2.3 4-4.4 5.3-7.1 1-1.9 2.4-3.4 4.4-4.6.8-.5 1.7-.7 2.6-1l.3-.1c1.1-.3 2.3-.6 3.6-.6.4 0 .7 0 1.1.1h.1.3c.3.1.6.2.8.3.3.1.6.2.8.2h.1c.6-.3 1.2-.7 1.8-1.2.3-.2.6-.4.8-.6l1.4-1c1.1-.8 1.8-2 2-3.7l.6-4.8c.1-.7.1-1.4.2-2.1.1-1.8.2-3.6 1-5.4l.2-.4c.5-1.1 1-2.4 2.3-3.1.2-.1.5-.3.7-.4.9-.5 1.8-1.2 3.1-1.2h.4c2.3.2 5.5 1 6.5 5.5.2.8.2 1.5.3 2.2 0 .3 0 .5.1.8v.9c0 .5 0 .6.1.7.6.5.5 1.4.1 1.9-.4.6-.3 1.3-.2 2.2 0 .2 0 .4.1.6.1 1.3-.1 2.6-.2 3.8-.1 1-.3 1.9-.2 2.9 0 .9.2 1.1.7 1.3.1 0 .2.1.3.1.5.2 1.2.4 1.6 1 .3.4.6.6 1.3.6h.6.8c2.1 0 4.1.8 5.8 2.4.1.1.3.2.5.3a2.59 2.59 0 0 1 1.1 1l.6.9c.6.8 1.2 1.7 1.6 2.8 1 2.3 2.4 4.6 3.8 6.7l.5.8c.6.9 1.3 1.8 2 2.6.3.3.6.7.8 1l.4.5c1.3 1.6 2.5 3.2 3.9 4.7.3.4.7.7 1 1.1a16.32 16.32 0 0 1 1.7 2c1.2 1.6 2.6 3 4 4.3 1.2 1.2 2.5 2.4 3.6 3.8 1.6 1.9 3.5 3.8 5.2 5.5l3.6 3.7c.5.6 1 1.1 1.5 1.7.2.3.5.5.7.8l.7.7c.6.5 1.2 1.1 1.6 2l.2.2c.1.1.3.2.4.3l5.7 6.2c.2.3.4.5.6.8.1.2.2.4.4.6.2.3.3.8.1 1.1s-.5.5-.9.5h-.1-.6-.6-.6c-.4 0-.9 0-1.5-.2-.4.1-.8.1-1.1.1h-.5-.4c-.3 0-.5 0-.6.1a11.2 11.2 0 0 1-2.3.6c-.6.1-1.1.2-1.6.4-1.1.4-2.4.8-3.9 1.3-1.6.5-3.1 1.2-4.6 2-.6.3-1.2.6-1.8.8-2.5 1.1-4.8 2.3-7 3.5-2.6 1.4-4.3 2.7-5.5 4.3-.8 1-1.4 2.3-1.8 3.6-.5 1.9-1.3 3.6-2.5 5.4-.5.9-1.3 1.3-1.8 1.6-.2.1-.4.2-.6.4-.9.6-1.8 1-2.7 1.3-.6.2-1.2.4-1.7.7l-3.5 2c-.4.2-.6.5-.7 1.3-.4 2.4-.5 4.5-.3 6.3.4 3.3.4 6.7.3 9.9 0 2.2-.1 4.4.1 6.6.1 1.4.4 3 .9 4.7.2.5.3 1 .4 1.5.1.6.3 1.2.5 1.8.5 1.4 1.3 2.8 2.4 4.5.2.3.4.6.7.9.2.3.5.6.7.9.3.4.4.8.5 1.3s-.1.9-.3 1.1c-.4.4-.9.4-1.1.4-.2.1-.4.1-.5.2-.9.3-1.9.7-3 .7h-.6c-1.7-.2-3.3-.5-4.7-.8-1-.2-1.6-1-1.6-2v-.4-1.7l-.1-.6c-.2-2-.4-3.8-1.1-5.6-.7-1.7-1.5-3.5-2.7-5.5l-1.8-3c-1-1.6-2.1-3.3-2.9-5-.7-1.4-1-2.5-1-3.6V800v-2.9c.1-.8.2-1.5.4-2.2.1-.3.1-.6.2-.9.6-2.9.9-5.1 0-7.5-.3-.7-.4-1.3-.6-2-.1-.6-.3-1.2-.5-1.7-.3-.6-.4-1.2-.5-1.8s-.3-1.2-.5-1.7c-.1-.1-.1-.3-.1-.5 0-1.3-.3-2.5-.6-3.8-.3-1-.5-2.1-.6-3.2l-.5-3.8-2.1 3.3c-.4.6-.8 1.3-1.3 1.9-.9 1.4-1.8 2.6-2.4 4.1 0 .1-.1.2-.2.3-1.2 1.3-2 2.9-2.8 4.6-.5 1.1-1.1 2.3-1.8 3.4-.2.9-.5 1.7-.7 2.5-.4 1.1-.7 2.1-.9 3.2s-.2 2.2-.2 3.4c0 .9 0 1.9-.1 2.9l-.1.6c-.3 2.4-.5 4.9-2.1 7.2l-.8 1.1c-.6.8-1.1 1.7-1.8 2.5-2.3 2.8-4 6.1-5.6 9.2l-.8 1.5a3.73 3.73 0 0 0-.2 1.2c0 .3-.1.6-.1.9-.1.2-.1.5-.2.7-.1.3-.2.6-.2.8v.3c0 .4 0 1-.4 1.6 0 .7-.2 1.3-.4 1.9-.1.3-.2.7-.3 1-.3 1.7-1.4 2.2-2.5 2.4-1 .8-1.7.9-2.3.9z" />
		<path
			d="M173.6 677.4h.3c2.7.2 4.8 1.3 5.6 4.7.2 1 .2 1.9.3 2.8.1.7-.3 1.6.4 2.2.1.1.1.4 0 .6-.7 1.1-.4 2.3-.3 3.4.2 2.2-.5 4.4-.5 6.6 0 1.1.3 1.8 1.3 2.2.5.2 1.2.3 1.5.7.6.8 1.3 1 2.1 1h.7.7c2 0 3.6.8 5.1 2.2.5.4 1.1.7 1.5 1.1.7 1.1 1.6 2.2 2.1 3.5 1.1 2.7 2.8 5.2 4.4 7.7.8 1.3 1.9 2.5 2.9 3.8l4.3 5.2 2.7 3c2.3 3 5.3 5.3 7.7 8.1 2.7 3.3 6 6.1 8.8 9.2.7.8 1.4 1.7 2.1 2.5s1.7 1.4 2.1 2.5c.1.3.5.6.8.9l5.7 6.1h0c.3.3.5.8.9 1.4h-.7-1.2c-.5 0-1-.1-1.4-.3-.4.2-.7.2-1.1.2h-.8c-.3 0-.7 0-1 .2-1.3.6-2.6.6-3.9 1-1.3.5-2.5.9-3.8 1.3-2.3.7-4.4 1.9-6.5 2.9-2.4 1.1-4.8 2.3-7.1 3.5-2.2 1.2-4.3 2.6-5.8 4.6-.9 1.2-1.5 2.6-1.9 3.9-.5 1.9-1.3 3.5-2.4 5.2-.6.9-1.4 1.1-2.1 1.7-1.3.9-2.9 1.2-4.3 2l-3.5 2c-.8.4-1.1 1-1.2 2-.4 2.2-.6 4.4-.3 6.6.7 5.5.1 11 .4 16.5a20.99 20.99 0 0 0 .9 5c.3 1.1.5 2.3.9 3.4.6 1.7 1.5 3.2 2.5 4.7.4.6 1 1.2 1.4 1.8.2.2.3.6.3.9.1.5-.4.3-.7.4-1.1.3-2.2.8-3.3.8h-.5c-1.6-.2-3.1-.5-4.6-.8-.4-.1-.8-.4-.7-1 0-.7.1-1.5 0-2.2-.2-2.2-.4-4.4-1.2-6.4-.8-1.9-1.7-3.8-2.7-5.6-1.5-2.7-3.4-5.2-4.7-8-.5-1-.9-2.1-.9-3.2 0-1.3-.1-2.6 0-4 .1-1 .4-2 .6-2.9.5-2.7 1-5.3 0-8-.5-1.2-.6-2.6-1-3.7-.5-1.2-.5-2.6-1.1-3.7 0-2.4-1-4.6-1.3-7l-.9-6.7c-.3.5-.5.9-.7 1.2l-2.9 4.5c-1.3 2-2.8 3.9-3.8 6.1-2.2 2.4-3 5.7-4.8 8.3-.5 2-1.3 3.8-1.7 5.9s-.1 4.3-.3 6.4c-.3 2.5-.4 5.1-2 7.3-.8 1.2-1.6 2.4-2.5 3.5-2.8 3.3-4.6 7.2-6.5 11-.3.7-.3 1.6-.5 2.4-.1.5-.3 1.1-.4 1.6-.1.6.2 1.2-.4 1.6.1 1.1-.5 2.1-.6 3.1-.2 1.1-.8 1.4-1.7 1.6-.6.1-1.3.2-1.9.2-1.2 0-2.3-.3-3.2-1.3-.6-.6-.6-1.2-.2-1.9l2.4-4.8c.9-2.1 1.6-4.2 2.2-6.4.7-2.6 1.2-5.2 1.6-7.9.2-1.3.6-2.7.8-4 .1-.9.2-1.8.4-2.6.3-.8.2-1.7.4-2.4.4-1.6 1-3.2 1.6-4.7.3-.9.5-1.7 1-2.6.5-.8.6-1.7.9-2.6s.2-1.8.8-2.7c.1-.2 0-.5 0-.8v-7.1c0-.7-.3-1.5-.4-2.2-.1-.8 0-1.6 0-2.4-.1-2.2.7-4.2 1.3-6.2 1-2.9 2.2-5.7 3.6-8.4.9-1.8 1.8-3.6 2.4-5.5.3-1 .8-2 .6-3.1-.2-1.9.5-3.7 1-5.5.2-.8.1-1.5.3-2.4-2.7-.4-5.5-.5-8.1-.5l-7.6.1h-1.8-.5c-1.4 0-2.9.1-4.2.4-1.4.3-2.9.6-4.3 1.1-2.9 1.1-5.6 2.4-7.8 4.7-1.8 1.8-3.6 3.6-4.7 6-1.6 3.3-3 6.7-3.8 10.3-.2 1.1-.7 2.1-.9 3.2l-.5 2.5c-.3-2.6-.9-4.8-.5-6.9.3-1.6 0-3.2.4-4.6.3-1.1.2-2.2.6-3.3.3-.9.7-2 .9-3 .4-1.5.8-3 1.3-4.4.9-2.5 2.1-4.8 3.2-7.2 1.8-3.7 4-7.1 6.2-10.5 1.1-1.7 2.6-3 3.7-4.6 1.4-1.9 3.2-3.4 4.8-5.1.8-.9 1.5-1.8 2.3-2.6.4-.5 1-.7 1.5-1.1s.8-.8 1.2-1.3c2.6-3.1 5.6-5.9 7.5-9.5.9-1.8 2.3-3.2 4-4.2.8-.5 1.7-.7 2.6-.9 1.1-.3 2.2-.5 3.4-.5.3 0 .7 0 1 .1h.1.1c.6.1 1.2.5 1.8.5.2 0 .4 0 .6-.1 1-.5 1.9-1.2 2.8-1.9l1.4-1c1.5-1.1 2.2-2.7 2.4-4.3l.6-4.8c.3-2.4.1-4.9 1.1-7.2.5-1.2.9-2.5 2-3.1.5-1.1 1.5-2 2.8-2m0-2c-1.6 0-2.8.8-3.6 1.3-.2.1-.4.3-.6.4-1.6.9-2.2 2.5-2.7 3.6-.1.1-.1.3-.2.4-.8 1.9-1 4-1.1 5.7 0 .7-.1 1.4-.2 2l-.6 4.8c-.2 1.4-.7 2.3-1.6 2.9l-1.4 1c-.3.2-.6.4-.8.6-.5.4-1 .7-1.5 1-.1 0-.3-.1-.4-.1l-.9-.3h-.1-.5c-.4 0-.7-.1-1.1-.1-1.4 0-2.7.3-3.9.6l-.3.1c-.9.2-1.9.5-2.8 1.1-2.1 1.3-3.7 3-4.8 5-1.3 2.5-3.2 4.6-5.2 6.8-.7.7-1.4 1.5-2.1 2.3l-.2.2c-.3.3-.5.6-.7.8-.2.1-.3.2-.5.3l-1.3 1c-.5.5-.9 1-1.4 1.6-.3.4-.6.7-.9 1.1-.5.5-1 1.1-1.6 1.6-1.1 1.1-2.3 2.3-3.3 3.7-.5.6-1 1.3-1.6 1.9-.8.9-1.5 1.8-2.2 2.8l-.7 1.1c-2 3.1-4 6.2-5.7 9.7l-.1.2c-1.1 2.3-2.2 4.7-3.2 7.2-.5 1.3-.9 2.8-1.4 4.6-.2 1-.5 1.9-.8 2.8-.3.8-.4 1.6-.5 2.2-.1.5-.1.8-.2 1.2-.3 1-.3 2-.3 3 0 .6 0 1.3-.1 1.8-.4 1.9-.1 3.7.2 5.4l.3 2.1c.1 1 .9 1.7 1.9 1.8h.1c1 0 1.8-.7 2-1.6l.5-2.5c.1-.5.3-1 .4-1.5.2-.5.3-1 .5-1.6.7-3.1 1.9-6.3 3.7-9.9 1-2 2.6-3.7 4.3-5.4l.1-.1c2.1-2.1 4.7-3.3 7.1-4.2 1-.4 2.1-.6 3.2-.9.3-.1.5-.1.8-.2 1.1-.3 2.3-.4 3.8-.4h.5 1.8 3.8 3.8c2.3 0 4.2.1 5.9.2v.2c-.1.4-.2.9-.4 1.3-.4 1.5-.9 3.1-.7 5 0 .4-.1.9-.3 1.5-.1.3-.2.5-.2.8-.4 1.5-1.1 2.9-1.8 4.3-.1.3-.3.6-.4.9-1.6 3.3-2.8 6.1-3.6 8.7l-.1.3c-.7 2-1.4 4.2-1.4 6.6v.9 1.6c0 .5.1.9.2 1.3.1.3.1.6.1.8v4.9 2.1.2c-.3.7-.4 1.4-.5 1.9 0 .3-.1.5-.1.7-.1.4-.2.7-.3 1.1-.1.5-.3.9-.4 1.1-.4.7-.7 1.4-.9 2.1-.1.3-.2.5-.3.8-.7 1.7-1.2 3.4-1.7 4.9-.1.5-.2 1-.2 1.5 0 .4-.1.7-.1.9-.3.8-.4 1.7-.4 2.4 0 .2 0 .4-.1.5-.1.7-.2 1.3-.4 2.1-.1.6-.3 1.2-.4 1.9-.4 2.7-.9 5.2-1.6 7.7-.6 2.3-1.2 4.3-2 6.1-.7 1.6-1.6 3.2-2.3 4.6-1.1 2.1-.1 3.5.6 4.2 1.3 1.3 2.8 1.9 4.7 1.9.7 0 1.5-.1 2.3-.3s2.8-.6 3.2-3.2c0-.3.1-.5.2-.9.2-.5.4-1.1.4-1.8.5-.8.4-1.6.4-1.9v-.1c0-.2.1-.4.2-.7s.1-.5.2-.8c.1-.4.1-.7.2-1a2.39 2.39 0 0 1 .2-.9c.3-.5.5-1 .8-1.5 1.7-3.3 3.2-6.4 5.5-9 .7-.8 1.3-1.7 1.9-2.6.2-.4.5-.7.7-1.1 1.7-2.5 2-5.2 2.3-7.7l.1-.6c.1-1 .1-2 .1-3 0-1.1 0-2.2.2-3.2s.5-2 .8-3c.3-.8.5-1.6.7-2.4.7-1.1 1.2-2.3 1.8-3.4.8-1.6 1.5-3.2 2.6-4.4.1-.2.3-.3.3-.5.6-1.3 1.4-2.6 2.4-3.9.4-.6.9-1.3 1.3-2l.6-1 .1 1.1c.1 1.1.4 2.2.6 3.3.3 1.2.6 2.4.6 3.5a1.93 1.93 0 0 0 .3 1c.2.3.3.9.4 1.4a8.93 8.93 0 0 0 .6 2c.2.4.3 1 .4 1.5a8.3 8.3 0 0 0 .6 2.1c.8 2 .5 4.1-.1 6.9-.1.3-.1.6-.2.9-.2.7-.3 1.5-.4 2.3-.1 1-.1 2 0 3v1.1c0 1.7.6 3.1 1.1 4.1a42.67 42.67 0 0 0 3 5.1c.6 1 1.2 2 1.8 2.9 1.1 1.9 1.9 3.7 2.6 5.4.6 1.6.8 3.4 1 5.3l.1.6v1.5.4c-.1 1.5.9 2.7 2.3 3s3.1.6 4.8.8h.8c1.3 0 2.4-.4 3.4-.7.1 0 .3-.1.4-.1.4 0 1.1-.1 1.7-.7.3-.3.7-.9.6-1.8 0-.5-.2-1.2-.6-1.8-.2-.4-.5-.7-.7-1s-.4-.5-.6-.8c-1-1.6-1.7-3-2.3-4.3-.2-.5-.3-1.1-.4-1.7-.1-.5-.2-1-.4-1.6-.5-1.6-.8-3.1-.8-4.5-.1-2.2-.1-4.4-.1-6.5 0-3.3.1-6.7-.3-10.1-.2-1.7-.1-3.7.3-6 .1-.4.1-.5.1-.5l.1-.1 3.5-2c.4-.2 1-.4 1.5-.7.9-.4 2-.8 3-1.4.1-.1.3-.2.5-.3.6-.4 1.5-.9 2.2-1.9 1.2-1.9 2-3.7 2.6-5.7.3-1.2.9-2.4 1.6-3.3 1.1-1.5 2.7-2.7 5.1-4 2.2-1.2 4.5-2.3 7-3.4l1.8-.9c1.5-.7 3-1.5 4.5-1.9s2.8-.9 3.9-1.3c.4-.2.9-.3 1.5-.4.8-.1 1.6-.3 2.5-.7h.2.3.5c.3 0 .6 0 1-.1.6.2 1.1.2 1.5.2h.7.5.4.3c.7 0 1.4-.4 1.7-1 .4-.7.4-1.6-.1-2.2-.1-.2-.3-.4-.4-.6-.2-.3-.4-.7-.7-1l-5.7-6.2c-.2-.2-.3-.3-.5-.4l-.1-.1c-.5-1-1.1-1.6-1.7-2.1-.2-.2-.5-.4-.6-.6-.2-.3-.5-.5-.7-.8l-1.5-1.8c-1.2-1.3-2.4-2.5-3.6-3.7-1.8-1.7-3.6-3.5-5.2-5.4-1.2-1.4-2.4-2.6-3.7-3.8-1.4-1.4-2.8-2.7-3.9-4.2-.6-.7-1.2-1.4-1.8-2-.3-.4-.7-.7-1-1.1-1.3-1.5-2.6-3.1-3.9-4.7l-.4-.5c-.3-.3-.6-.7-.8-1-.7-.9-1.4-1.7-1.9-2.5l-.5-.8c-1.4-2.2-2.7-4.3-3.7-6.6-.5-1.1-1.1-2.1-1.7-2.9-.2-.3-.4-.6-.6-.8-.4-.7-1-1-1.4-1.3-.1-.1-.3-.2-.3-.2-1.9-1.8-4.1-2.7-6.5-2.7h-.9-.5c-.4 0-.4 0-.5-.2-.6-.8-1.5-1.1-2.1-1.3-.1 0-.2-.1-.3-.1v-.4c0-.9.1-1.8.2-2.7.2-1.3.3-2.6.2-4 0-.2 0-.4-.1-.6-.1-.8-.1-1.3.1-1.5.5-.8.6-2-.1-2.9v-.1c0-.3.1-.7 0-1.1 0-.2 0-.5-.1-.7-.1-.7-.1-1.5-.3-2.3-.9-3.8-3.3-5.9-7.4-6.2-.1-.1-.3-.1-.4-.1h0 0z" />
	</g>
	<path
		d="M236 757.3l-5.7-6.1c-.3-.3-.7-.5-.8-.9-.4-1.1-1.4-1.7-2.1-2.5l-2.1-2.5c-2.9-3.1-6.1-5.9-8.8-9.2-2.4-2.9-5.4-5.1-7.7-8.1-.8-1.1-1.8-2-2.7-3a107.82 107.82 0 0 1-4.3-5.2c-1-1.2-2.1-2.4-2.9-3.8-1.6-2.5-3.2-5-4.4-7.7-.5-1.3-1.4-2.3-2.1-3.5-.3-.5-1-.7-1.5-1.1-1.7-1.6-3.6-2.3-5.9-2.1-1 .1-2 .1-2.8-.9-.3-.4-.9-.5-1.5-.7-1.1-.4-1.3-1.1-1.3-2.2 0-2.2.6-4.3.5-6.6-.1-1.1-.4-2.3.3-3.4.1-.1.1-.5 0-.6-.7-.7-.3-1.5-.4-2.2-.1-.9-.1-1.9-.3-2.8-.8-3.4-2.9-4.5-5.6-4.7-1.4-.1-2.5.8-3.6 1.4s-1.5 1.9-2 3.1c-1 2.3-.8 4.8-1.1 7.2l-.6 4.8c-.2 1.7-.9 3.3-2.4 4.3l-1.4 1c-.9.6-1.8 1.4-2.8 1.9-.8.4-1.6-.2-2.4-.4h-.2c-1.5-.2-3 .1-4.4.5-.9.2-1.8.5-2.6.9-1.7 1-3.1 2.4-4 4.2-1.8 3.7-4.9 6.5-7.5 9.5-.4.4-.7.9-1.2 1.3s-1.1.7-1.5 1.1c-.8.8-1.5 1.8-2.3 2.6-1.6 1.7-3.4 3.2-4.8 5.1-1.1 1.6-2.7 3-3.7 4.6-2.2 3.4-4.5 6.8-6.2 10.5-1.1 2.4-2.2 4.7-3.2 7.2-.5 1.4-1 2.9-1.3 4.4-.2 1-.6 2.1-.9 3-.4 1.1-.3 2.2-.6 3.3-.4 1.4-.1 3-.4 4.6-.5 2.1.2 4.3.5 6.9l.5-2.5c.2-1.1.7-2.1.9-3.2.8-3.6 2.2-7 3.8-10.3 1.2-2.3 2.9-4.1 4.7-6 2.2-2.3 4.9-3.6 7.8-4.7 1.4-.5 2.8-.8 4.3-1.1 1.5-.4 3.2-.5 4.8-.4 5.7.1 11.5-.4 17.5.4-.2.9-.1 1.6-.3 2.4-.4 1.8-1.2 3.6-1 5.5.1 1.1-.3 2.1-.6 3.1-.6 2-1.5 3.7-2.4 5.5-1.3 2.8-2.6 5.5-3.6 8.4-.7 2-1.4 4-1.3 6.2 0 .8-.1 1.6 0 2.4.1.7.3 1.5.4 2.2.1 2.4 0 4.8 0 7.1 0 .3.1.6 0 .8-.6.8-.4 1.8-.8 2.7-.3.9-.5 1.8-.9 2.6-.5.8-.7 1.7-1 2.6-.6 1.5-1.1 3.1-1.6 4.7-.2.8-.1 1.6-.4 2.4s-.3 1.7-.4 2.6c-.2 1.4-.6 2.7-.8 4-.4 2.6-.9 5.3-1.6 7.9-.6 2.2-1.2 4.4-2.2 6.4-.7 1.6-1.6 3.2-2.4 4.8-.4.7-.4 1.3.2 1.9 1.5 1.5 3.2 1.5 5.1 1.1.9-.2 1.5-.5 1.7-1.6.2-1 .7-2 .6-3.1.6-.4.3-1.1.4-1.6s.3-1.1.4-1.6c.2-.8.1-1.7.5-2.4 2-3.8 3.7-7.7 6.5-11 .9-1.1 1.7-2.3 2.5-3.5 1.5-2.2 1.7-4.8 2-7.3.2-2.1-.1-4.2.3-6.4.3-2.1 1.2-3.9 1.7-5.9 1.8-2.7 2.5-5.9 4.8-8.3 1-2.2 2.5-4.1 3.8-6.1l2.9-4.5c.2-.3.4-.7.7-1.2l.9 6.7c.3 2.4 1.2 4.6 1.3 7 .7 1.1.6 2.5 1.1 3.7s.6 2.5 1 3.7c1 2.7.6 5.3 0 8-.2 1-.5 2-.6 2.9-.1 1.3 0 2.6 0 4 0 1.1.4 2.2.9 3.2 1.3 2.8 3.2 5.3 4.7 8 1 1.8 2 3.7 2.7 5.6.8 2 1 4.3 1.2 6.4.1.7 0 1.4 0 2.2 0 .6.3.9.7 1 1.5.3 3.1.6 4.6.8 1.3.2 2.6-.4 3.8-.8.3-.1.7.1.7-.4 0-.3-.1-.6-.3-.9-.4-.6-1-1.2-1.4-1.8-1-1.5-1.8-3-2.5-4.7-.4-1.1-.5-2.3-.9-3.4a20.99 20.99 0 0 1-.9-5c-.3-5.5.3-11-.4-16.5-.3-2.2-.1-4.4.3-6.6.2-.9.4-1.6 1.2-2l3.5-2c1.4-.7 3-1.1 4.3-2 .7-.5 1.6-.8 2.1-1.7a22.45 22.45 0 0 0 2.4-5.2c.4-1.4 1.1-2.8 1.9-3.9 1.5-2 3.6-3.4 5.8-4.6 2.3-1.2 4.7-2.4 7.1-3.5 2.2-1 4.2-2.2 6.5-2.9 1.3-.4 2.6-.8 3.8-1.3 1.3-.5 2.7-.5 3.9-1 .9-.4 2 .1 2.9-.3 1 .5 2.1.1 3.3.3.1-.4-.1-.9-.4-1.2h0z"
		fill="none" stroke="#000" stroke-width="1.55" stroke-linejoin="round" stroke-miterlimit="1.2918" />
	<g fill="#1e1e2e">
		<path
			d="M200.8 729.4c-1.2 0-2.3 1-2.3 2.3 0 1.2 1 2.3 2.3 2.3 1.2 0 2.3-1 2.3-2.3 0-1.2-1.1-2.2-2.3-2.3zm-30.9 10c0-1.3-1.1-2.4-2.4-2.5-1.3 0-2.4 1.1-2.5 2.4 0 1.3 1.1 2.5 2.4 2.5s2.4-1.1 2.5-2.4h0zm35.3 5.3c0-1.4-1-2.5-2.4-2.5s-2.6 1-2.6 2.5c0 1.4 1 2.5 2.4 2.5 1.5 0 2.6-1.1 2.6-2.5zm-1.7 5.5a2.65 2.65 0 0 0-2.6-2.6 2.65 2.65 0 0 0-2.6 2.6 2.65 2.65 0 0 0 2.6 2.6c1.4.1 2.6-1.1 2.6-2.6zm-4.5 8.3c1.4 0 2.7-1.3 2.7-2.7 0-1.5-1.3-2.7-2.7-2.7s-2.7 1.2-2.7 2.7c0 1.4 1.3 2.7 2.7 2.7zm-14.9-39c1.7.5 3.1 1.2 3.6 2.1.1-.3.2-.5.2-.8 0-1.1-.9-2.1-2.1-2.1-.7 0-1.3.3-1.7.8zm5.1 3c0 1.2.9 2.1 2.1 2.2 1.2 0 2.1-.9 2.1-2.1s-.9-2.1-2.1-2.1c-1.1 0-2.1.9-2.1 2zm6.1 28.5a2.65 2.65 0 0 0 2.6-2.6 2.65 2.65 0 0 0-2.6-2.6 2.65 2.65 0 0 0-2.6 2.6c0 1.4 1.3 2.6 2.6 2.6zm-7.7-37.8c-1.1 0-2 .9-2 2s.9 2 2 2 2-.9 2-2c0-1-.9-2-2-2zm-5.6-1.7c-1 0-1.9.9-1.9 2 0 1 .9 1.9 2 1.9 1 0 1.9-.9 1.9-2 0-1-1-1.9-2-1.9zm11.1 3.5c-1.1 0-2 .9-2 2a1.94 1.94 0 0 0 2 2c1.1 0 2-.9 2-2a1.94 1.94 0 0 0-2-2h0zm-12.5 43.6c1.4 0 2.7-1.2 2.8-2.7 0-1.4-1.2-2.7-2.7-2.7-1.4 0-2.7 1.2-2.7 2.7-.2 1.4 1.1 2.7 2.6 2.7zm-3.9-7.5a2.65 2.65 0 0 0 2.6-2.6 2.65 2.65 0 0 0-2.6-2.6 2.65 2.65 0 0 0-2.6 2.6c0 1.5 1.3 2.7 2.6 2.6zm-1.2-9.9c0-1.3-1.1-2.5-2.5-2.5-1.3 0-2.5 1.1-2.5 2.5 0 1.3 1.1 2.5 2.5 2.5 1.3 0 2.4-1.2 2.5-2.5zm-4.3 8.1a2.65 2.65 0 0 0 2.6-2.6c0-1.4-1.1-2.6-2.5-2.6a2.65 2.65 0 0 0-2.6 2.6c-.1 1.4 1.1 2.6 2.5 2.6h0zm19.4 2.9c0-1.5-1.1-2.6-2.6-2.6s-2.6 1.1-2.6 2.6 1.1 2.7 2.6 2.7c1.4-.1 2.6-1.3 2.6-2.7h0zm3.5-11.1c0-1.3-1.1-2.5-2.5-2.5-1.3 0-2.5 1.1-2.5 2.5 0 1.3 1.1 2.5 2.5 2.5 1.3-.1 2.4-1.2 2.5-2.5zm-1.8 5.5c0-1.4-1.1-2.5-2.5-2.6s-2.6 1.1-2.6 2.6c0 1.4 1.1 2.5 2.5 2.5 1.5.1 2.6-1.1 2.6-2.5zm-6.2 13.9c1.5 0 2.7-1.2 2.8-2.7 0-1.5-1.2-2.8-2.7-2.8s-2.7 1.2-2.8 2.7c0 1.5 1.2 2.7 2.7 2.8zm-1.1-10.1a2.65 2.65 0 0 0-2.6-2.6 2.65 2.65 0 0 0-2.6 2.6 2.65 2.65 0 0 0 2.6 2.6 2.65 2.65 0 0 0 2.6-2.6zm11.9-28.2c-1.2 0-2.2 1-2.2 2.1 0 1.2.9 2.1 2.1 2.2 1.2 0 2.2-1 2.2-2.1 0-1.2-.9-2.1-2.1-2.2zm-50.2-1.2c0 1.1 1 2.1 2.1 2.1s2.1-1 2.1-2.1-1-2.1-2.1-2.1-2.1 1-2.1 2.1zm3.9-7.5c-1.1 0-2 .9-2 2s.9 2 2 2 2-.9 2-2-.9-2-2-2zm7.2 11.1a2.22 2.22 0 0 0 2.2 2.2 2.22 2.22 0 0 0 2.2-2.2 2.22 2.22 0 0 0-2.2-2.2c-1.3.1-2.2 1.1-2.2 2.2zm-1.6-9.3c-1.1 0-2 .9-2 2s.9 2 2 2 2-.9 2-2a1.94 1.94 0 0 0-2-2zm-3.9 7.5c0 1.2.9 2.1 2.1 2.1s2.1-.9 2.1-2c0-1.2-.9-2.2-2.1-2.2s-2.1.9-2.1 2.1zm4 20.1c.9-1.1.8-2.5-.1-3.4s-2.3-1-3.3-.2-1.2 2.1-.5 3.2c.1.2 3.9.4 3.9.4zm-11.5-16.3a2.22 2.22 0 0 0 2.2 2.2c1.2 0 2.2-1.1 2.2-2.2 0-1.2-1.1-2.2-2.2-2.2a2.22 2.22 0 0 0-2.2 2.2h0zm11 35.8c1.2-.6 1.9-2 1.5-3.2-.4-1.3-1.5-2.1-2.8-2l-2.1 4.2c.8 1.2 2.2 1.6 3.4 1zm-2.7-28.4c0-1.3-1.1-2.4-2.4-2.4s-2.4 1.1-2.4 2.4 1.1 2.4 2.4 2.4c1.3-.1 2.4-1.2 2.4-2.4zm17.9-29.8c0 1 .8 1.7 1.7 1.7 1 0 1.7-.8 1.7-1.7s-.8-1.7-1.7-1.7-1.7.8-1.7 1.7zm-11.3 14.9c0 .8.6 1.6 1.3 1.9-.2-.7-.1-1.4.6-1.5.7-.2 1.5-.3 2.2-.4 0-1.1-1-2.1-2.1-2-1.1-.1-2 .9-2 2zm14.9-22a1.73 1.73 0 0 0-1.7 1.5c0 .8.7 1.6 1.5 1.6a1.73 1.73 0 0 0 1.7-1.5c0-.8-.7-1.6-1.5-1.6zm3.7 7.2c-1 0-1.8.8-1.7 1.8 0 1 .7 1.7 1.7 1.7s1.8-.7 1.8-1.7c-.1-1-.8-1.8-1.8-1.8zm49.7 44.2l-3.2-3.8c-.9 1.1-.9 2.5 0 3.4s2.2 1.1 3.2.4zM175.4 710c.9.8 1.8 1.8 2.5 2.8.3-.3.4-.7.4-1.2 0-1.1-.8-1.9-1.9-1.9a1.93 1.93 0 0 0-1 .3zm-8.3 5.3a2.05 2.05 0 0 0 1.8 2l.3-3.9h-.2a1.97 1.97 0 0 0-1.9 1.9zm-3.6-3.7c-1 0-1.9.9-2 1.9 0 1 .9 2 2 2 1 0 1.9-.9 1.9-2 .1-1-.8-1.9-1.9-1.9h0zm5.6-1.8c0 .5.2 1 .6 1.3.1-.3.1-.7.2-1 .2-1.4.9-2 1.7-2.1-.2-.1-.4-.1-.7-.1-1 .1-1.8.9-1.8 1.9h0zm9.4 8.7a27.13 27.13 0 0 1 3.8.6v-.1c0-1.1-.9-2.1-2.1-2.1-.5 0-.9.2-1.3.5-.1.3-.3.7-.4 1.1h0zM148.9 742c1.3 0 2.5-1.2 2.5-2.5s-1.2-2.4-2.5-2.4-2.4 1.2-2.4 2.5c0 1.2 1.1 2.4 2.4 2.4h0zm-13.4-6c0 1.3 1 2.4 2.3 2.4s2.4-1 2.4-2.3-1-2.4-2.4-2.4a2.26 2.26 0 0 0-2.3 2.3zm20.8 2.1c1.3 0 2.4-1 2.4-2.4 0-1.3-1.1-2.4-2.4-2.4s-2.4 1.1-2.3 2.4c0 1.4 1 2.4 2.3 2.4h0zm66 13.7c0 1.5 1.1 2.7 2.6 2.7s2.6-1.1 2.6-2.6-1.1-2.6-2.6-2.6c-1.4 0-2.6 1.1-2.6 2.5zm-1.2-4.8c1.4 0 2.5-1.1 2.5-2.5s-1.1-2.5-2.5-2.5-2.5 1.1-2.5 2.5c.1 1.5 1.1 2.5 2.5 2.5zm-19.8-9.7c0-1.3-1-2.4-2.4-2.4-1.3 0-2.4 1-2.4 2.4s1 2.4 2.4 2.4 2.4-1.1 2.4-2.4h0zm-48.7-11.1a2.22 2.22 0 0 0-2.2 2.2c0 1.2 1 2.3 2.2 2.3a2.22 2.22 0 0 0 2.2-2.2c0-1.3-1-2.3-2.2-2.3zm37-.3c-1.2 0-2.2 1-2.3 2.2 0 1.3 1 2.3 2.2 2.3a2.22 2.22 0 0 0 2.2-2.2c.1-1.3-.9-2.3-2.1-2.3zm1.4 9.6c0 1.3 1.1 2.4 2.4 2.4s2.3-1.1 2.3-2.4-1.1-2.4-2.4-2.4c-1.2.1-2.3 1.1-2.3 2.4zm6.1 4.9c-1.4 0-2.5 1.1-2.5 2.5s1.1 2.5 2.4 2.5c1.4 0 2.5-1.1 2.5-2.5.1-1.4-1-2.5-2.4-2.5zm-1.9-12.7c-1.3 0-2.3.9-2.3 2.2s.9 2.3 2.2 2.3 2.3-.9 2.3-2.2-.9-2.3-2.2-2.3zm17.3 13.2c0-1.3-1.2-2.5-2.5-2.5s-2.5 1.2-2.5 2.5 1.2 2.5 2.5 2.5c1.4 0 2.5-1.2 2.5-2.5zm-10.4-1.8c0 1.3 1.1 2.4 2.5 2.4 1.3 0 2.4-1.1 2.4-2.5 0-1.3-1.1-2.4-2.5-2.4-1.4.1-2.5 1.2-2.4 2.5zm-62.4-6.5c1.3 0 2.2-1 2.2-2.2 0-1.3-1-2.2-2.2-2.3-1.3 0-2.3.9-2.3 2.2s.9 2.3 2.3 2.3h0zm68.5 11.3a2.65 2.65 0 0 0-2.6 2.6c0 1.4 1.2 2.5 2.6 2.5s2.5-1.2 2.5-2.6c.1-1.3-1.1-2.5-2.5-2.5h0zm-49.2 9.7c-.3-1.1-1.3-1.8-2.6-1.9l-.7 2.4-.9 2.4c.9.7 2.1.8 3.1.1a2.76 2.76 0 0 0 1.1-3zm47.3-22.4c-1.3 0-2.4 1.1-2.3 2.4 0 1.2 1.1 2.3 2.3 2.3 1.3 0 2.4-1.1 2.4-2.4-.1-1.2-1.2-2.3-2.4-2.3h0zm-60.5 6.6c0-1.3-1-2.4-2.4-2.4s-2.4 1-2.4 2.4c0 1.3 1 2.4 2.4 2.4 1.3 0 2.4-1 2.4-2.4zm-2 5c-.2-1.1-1.1-1.8-2.2-1.9-1.1 0-2.1.7-2.3 1.7 1.5.2 3 .2 4.5.2h0zm23.1-9c0 1.3 1.1 2.3 2.4 2.3s2.3-1.1 2.3-2.4-1.1-2.3-2.4-2.3c-1.2.1-2.3 1.2-2.3 2.4zm-19.4-1.7c0-1.2-1.1-2.3-2.3-2.3s-2.3 1.1-2.3 2.3 1.1 2.3 2.3 2.3c1.2.1 2.3-1 2.3-2.3zm35.2 5.3c0-1.3-1-2.4-2.4-2.4s-2.4 1-2.4 2.4c0 1.3 1 2.4 2.4 2.3 1.4.1 2.4-.9 2.4-2.3zm-23.2.2c0 1.3 1 2.4 2.4 2.4s2.4-1 2.4-2.4c0-1.3-1-2.4-2.4-2.4s-2.4 1-2.4 2.4h0zm4.2-3.3c1.2 0 2.3-1.1 2.3-2.3s-1.1-2.3-2.3-2.3-2.3 1.1-2.3 2.3c0 1.3 1.1 2.3 2.3 2.3zm-.4-7.9a2.22 2.22 0 0 0 2.2 2.2c1.2 0 2.2-1.1 2.2-2.2v-.2c-1.1-.4-2.4-1-3.5-1.6-.6.5-.9 1.2-.9 1.8zm-3.3 14.2c-1.4 0-2.5 1.1-2.5 2.5s1.1 2.5 2.4 2.5c1.4 0 2.5-1.1 2.5-2.5.1-1.4-1-2.5-2.4-2.5zm2 18.3c1.4 0 2.7-1.3 2.7-2.7s-1.3-2.7-2.7-2.7-2.7 1.3-2.7 2.7 1.2 2.7 2.7 2.7zm7.5-32.2c-.4.4-.7 1-.7 1.6 0 1 .6 1.8 1.4 2.1-.4-1.1-.7-2.3-.6-3.7h-.1 0zm-3.1 23.8a2.65 2.65 0 0 0-2.6-2.6 2.65 2.65 0 0 0-2.6 2.6 2.65 2.65 0 0 0 2.6 2.6 2.65 2.65 0 0 0 2.6-2.6zm-8.3-22.5c-1.3 0-2.2.9-2.3 2.2a2.26 2.26 0 0 0 2.3 2.3c1.3 0 2.2-1 2.2-2.2s-.9-2.3-2.2-2.3zm-1.6 20.9c0 .7-.6 1.5.3 2.1.9.5 1.8.7 2.7.2s1.3-1.3 1.4-2.2c0-1.5-1.2-2.7-2.5-2.7-.8 0-1.4.2-1.5 1.2-.2.4-.5.9-.4 1.4h0zm28.9-15.2c0 1.3 1.1 2.3 2.4 2.3s2.3-1.1 2.3-2.4-1.1-2.3-2.4-2.3c-1.3.1-2.3 1.1-2.3 2.4zm-3.7-7.4a2.22 2.22 0 0 0 2.2 2.2 2.22 2.22 0 0 0 2.2-2.2 2.22 2.22 0 0 0-2.2-2.2c-1.1 0-2.1 1-2.2 2.2zm-5.5 6h.3a2.26 2.26 0 0 0 2.3-2.3c0-1.1-.8-2-1.8-2.2l-.8 4.5h0zm5.9-2.7c-1.2 0-2.3 1.1-2.3 2.3s1.1 2.3 2.3 2.3 2.3-1.1 2.3-2.3c0-1.3-1.1-2.4-2.3-2.3zm1.4 9.6c0 1.3 1.1 2.5 2.4 2.5s2.4-1.1 2.4-2.4-1.1-2.4-2.4-2.5c-1.3 0-2.4 1.1-2.4 2.4h0zm-6.1-14.4c0 .5-.1 1-.1 1.5.3.2.7.3 1.1.4a2.22 2.22 0 0 0 2.2-2.2c0-.2 0-.4-.1-.6l-3.1.9h0zm-9.3 20.2c0-1.4-1.1-2.5-2.5-2.6-1.4 0-2.5 1.1-2.5 2.5s1.1 2.5 2.5 2.6c1.4-.1 2.5-1.1 2.5-2.5zm16.1 2.3c1.4 0 2.5-1.1 2.5-2.5s-1.1-2.5-2.5-2.5-2.5 1.1-2.5 2.5 1.1 2.5 2.5 2.5zm-5.6-6.8c-1.4 0-2.5 1.1-2.5 2.5s1.1 2.5 2.5 2.5 2.5-1.1 2.5-2.4c-.1-1.5-1.2-2.6-2.5-2.6zM173 734c-.4.4-.6 1-.6 1.6 0 1.3 1.1 2.4 2.4 2.4s2.4-1.1 2.4-2.4c0-.9-.5-1.6-1.2-2-.6 1.1-1.8 1.2-3 .4zm37.2 28.1c1.5 0 2.7-1.3 2.7-2.8s-1.3-2.7-2.8-2.7-2.7 1.3-2.7 2.8 1.3 2.8 2.8 2.7zm-81-33.2c.9-.3 1.4-.9 1.5-1.8.1-.7-.1-1.3-.7-1.9l-2.7 3.4c.6.5 1.3.6 1.9.3zm-1.4 5.5c1-.6 1.5-1.8 1-2.9s-1.6-1.6-2.9-1.2l-1.1 1.6c-.5.6-.4 1.2 0 1.8.7 1 2 1.3 3 .7zm-2.9 5.9c1.4 0 2.4-1 2.4-2.4 0-1.3-1-2.4-2.4-2.4s-2.4 1-2.4 2.4 1.1 2.4 2.4 2.4zm9.2-9.4a2.22 2.22 0 0 0 2.2-2.2c0-1.3-1-2.2-2.3-2.2a2.22 2.22 0 0 0-2.2 2.2c.1 1.2 1.1 2.2 2.3 2.2zm-1.8 1c-1.3 0-2.4 1-2.4 2.3s1.1 2.4 2.4 2.4 2.3-1.1 2.4-2.3c-.1-1.3-1.1-2.4-2.4-2.4zm3.6-6.8c1.2 0 2.1-.9 2.1-2.1s-.9-2.1-2.1-2.1-2.1.9-2.1 2.1c0 1.1.9 2.1 2.1 2.1zm-19.4 28.5c.3-1.1-.1-2.3-1.1-2.9l-1.2 4.6c1 .1 1.9-.6 2.3-1.7zm-1.7 5.2c.2-1-.2-1.8-1-2.6l-.8 4.8c1.1-.5 1.6-1.2 1.8-2.2zm3.4-10.7c.3-1 0-2.1-.8-2.6-.6 1.4-1.3 2.8-1.7 4.3 1.2 0 2.1-.7 2.5-1.7zm1.5-7.5l-1.6 3.3c1.5 0 2.4-1.9 1.6-3.3zm25.3-25c1 0 2-.9 2-2 0-1-.9-1.9-2-1.9a1.97 1.97 0 0 0-1.9 1.9c0 1.1.9 2 1.9 2h0zm5.3-13.2c-.9.5-1.6 1-2.1 1.8 1.3.2 2.2-.5 2.1-1.8zm2.1 9.4a1.79 1.79 0 1 0 0-3.6 1.79 1.79 0 0 0-1.8 1.8c0 .9.8 1.8 1.8 1.8zm1.9-5.7c1 0 1.7-.8 1.7-1.7 0-1-.8-1.7-1.7-1.7-1 0-1.7.8-1.7 1.7-.1.9.7 1.7 1.7 1.7zm-16.2 13.3c.8-.2 1.4-.7 1.6-1.5.2-.7 0-1.4-.7-2-.6 1.3-2 1.8-2.9 2.8.6.6 1.2.9 2 .7h0zm19.9-5.8c1.1 0 1.9-.8 1.9-1.9s-.8-1.9-1.9-1.9-1.9.8-1.9 1.9.8 1.9 1.9 1.9zm-16.5 13.3a2.22 2.22 0 0 0 2.2-2.2c0-1.2-1-2.1-2.1-2.1a2.22 2.22 0 0 0-2.2 2.2c-.1 1.2.9 2.2 2.1 2.1zm1.8-5.6c1.1 0 2.1-1 2-2.1 0-1.1-1-2.1-2.1-2.1s-2.1 1-2.1 2.1c.1 1.1 1.1 2.1 2.2 2.1zm-30.2 44c-.2 1 .3 2.2 1.1 2.5.6-1.5 1-3.1 1.4-4.8-1.3 0-2.3 1-2.5 2.3zm34.4-55.5a1.79 1.79 0 0 0 1.2-2.1c-.2-1-1.1-1.5-2.1-1.3l-1.4 2.4c.5.9 1.3 1.3 2.3 1zm19.6 59.6c-.5.9-.5 2 0 2.7l2.6-4c-1-.2-2 .4-2.6 1.3h0zm45.5-5.2c-1 .5-1.6 1.5-1.4 2.5l4.4-2.2c-.8-.7-1.9-.8-3-.3h0zm3.1-5.8c-1.5 0-2.7 1.2-2.7 2.8a2.73 2.73 0 1 0 5.6 0c-.1-1.6-1.3-2.8-2.9-2.8zm4.3 2.2c-1 .5-1.6 1.6-1.4 2.5l4.6-1.9c-.8-1-2.1-1.2-3.2-.6h0zm-11.4 1.5c-1.5-.2-3 1.1-3.1 2.7-.1 1.4.7 2.3 1.8 2.9h0a.9.9 0 0 1 .5.1c1.7.3 3.1-.7 3.4-2.4.2-1.6-1-3.1-2.6-3.3h0zm25-7.5c-.4.8-.3 1.8.4 2.6s1.8 1.1 2.7.8c-.4-.6-2.6-3.1-3.1-3.4h0zm-29.7 14.7c.1-1.7-.5-2.9-2.1-3.3-1.5-.5-2.6.2-3.4 1.4-.3-2.2-1.1-3.1-2.6-3.3-1.2-.2-2.4.5-3 1.6-.3.7-.4 1.4-.1 2.2.3.7.8 1.2 1.5 1.7-1.4-.2-2.4.3-3.3 1.5 0-1.6-.6-2.6-2-3-1.5-.5-2.7.1-3.6 1.5.1-1.5-.4-2.6-1.7-3.1-1.6-.7-2.9-.1-3.8 1.3-.1-1.9-.9-3-2.4-3.3-1.2-.2-2.5.4-3.1 1.6-.3.7-.4 1.4-.2 2.2.3.8.8 1.3 1.5 1.7-1.4-.2-2.4.3-3.3 1.5 0-1.1-.2-2.1-1.3-2.7l.5 4.1.4-.1c0 1.1.4 2 1.4 2.7-.5.1-.9 0-1.2.3.7 1.8.4 3.9 1.4 5.7.8 0 1.4-.5 2.1-1.1.1.9.5 1.6 1 2.3-.9.1-1.5.5-2.1 1-.2-.7-.4-1.3-.9-1.7a.45.45 0 0 0 0 .5c.3 1 .7 2 .9 3.1.3 1.7 1.1 3.3 1.1 5.1-.1 1.8-.4 3.6-.8 5.4a12.22 12.22 0 0 0-.3 3.8c.5.1.7-.5 1.2-.5.1.7.5 1.1.8 1.7-.7.2-1.2.5-1.7.9l-.3-.3c-.2 1.3.2 2.4.7 3.4 1.4 3.2 3.5 5.9 5.2 8.9 1.9 3.5 3.4 7.1 3.5 11.2v2.4c.5.1.7-.4 1.1-.5 1.3 2.7 3.5 2.1 5.6 1.9.2 0 .2.2.5.2l3-.9c.1-1.3-.9-2-1.6-2.9l-.9.5c-.1-.7-.5-1.2-.8-1.7.3-.2.6-.2.8-.5-1.1-1.8-1.8-3.7-2.2-5.8-.6 0-.9.5-1.5.6-.1-.6-.5-1.2-.9-1.7.7-.2 1.3-.4 1.7-1-1-5.2-.3-10.5-.6-15.7-.1 0-.3-.1-.4-.1-.1-.6-.5-1.1-.8-1.7.4-.2.8-.2 1.1-.6 0-.1.1-.3 0-.5-.4-2.5-.4-5 0-7.4.1-.8.2-1.8.9-2.2 1.4-.9 2.9-1.8 4.4-2.5 1.7-.7 3.3-1.4 4.9-2.4 2.1-1.3 2.4-3.4.8-5v-.1c1.5-.1 2.7-.9 3-2.3.3-1.3-.3-2.5-1.6-3.4 1.4.1 2.4-.5 3.1-1.6 0 .7-.1 1.3.4 1.8 1.2-1.5 2.7-2.5 4.4-3.6l-1.1-.6h0c-1.3-.4-2.4 0-3.3 1.4h0zm-13.3 2.9c.1 1.3.5 2.2 1.7 2.9-1.3-.1-2.2.3-3 1.3-.1-1.2-.6-2-1.6-2.7 1.3 0 2.2-.4 2.9-1.5zm-5.4-2c0 .7 0 1.3.2 1.8s.6.9 1.1 1.3c-1.1 0-2.1.4-2.8 1.4-.1-1.2-.6-2.1-1.7-2.8 1.5 0 2.4-.5 3.2-1.7h0zm-4.9 15c-.2-.8-.5-1.4-1.1-2 .8-.2 1.5-.5 2.1-1.1.2.8.5 1.5 1.1 2.1-.8.2-1.5.4-2.1 1h0zm.1 4.5c-.7.2-1.3.5-1.8.9-.2-.7-.5-1.3-1-1.8a4.98 4.98 0 0 0 1.9-1c.1.8.4 1.4.9 1.9zm2.8 5.6a4.35 4.35 0 0 0 .9 1.8c-.6.2-1.2.5-1.8 1-.2-.7-.5-1.3-.9-1.8.6-.3 1.2-.6 1.8-1h0zm0-4.6c.7-.2 1.3-.5 1.8-1 .2.7.5 1.3.9 1.8-.7.2-1.2.5-1.8.9-.2-.6-.5-1.2-.9-1.7h0zm-1.2-10.8c-.2-1-.6-1.8-1.4-2.4 1.1-.1 1.9-.5 2.6-1.4 0 1.1.4 1.9 1.1 2.6-.8.2-1.6.5-2.3 1.2zm-2.3-11.7c-.2 1.5.2 2.5 1.4 3.3-1.2 0-2.1.4-2.9 1.4-.1-1.3-.5-2.2-1.7-2.9 1.4.1 2.4-.5 3.2-1.8h0zm-3.3 10.1c-.1-1.1-.5-1.8-1.3-2.6 1.1-.1 1.9-.5 2.6-1.4.1 1.1.4 2 1.3 2.7-1.1 0-1.9.4-2.6 1.3h0zm-.6 16.1c.7-.2 1.3-.5 1.8-.9.2.7.5 1.2.9 1.8-.7.2-1.2.5-1.8.9-.2-.6-.4-1.2-.9-1.8zm2.9 14.7c-.2-.7-.5-1.2-.9-1.8.7-.2 1.2-.5 1.8-.9.2.7.5 1.2.9 1.8-.7.2-1.2.5-1.8.9h0zm1.8-5.5c-.3-.6-.5-1.2-1-1.8.7-.2 1.3-.5 1.8-.9.2.7.5 1.2.9 1.8-.6.2-1.1.4-1.7.9h0zm1.9 12.9c-.2-.6-.5-1.2-.9-1.8.6-.2 1.2-.5 1.8-.9.2.7.5 1.2.9 1.8-.7.2-1.2.5-1.8.9h0zm1.8-5.5a4.35 4.35 0 0 0-.9-1.8c.6-.2 1.2-.5 1.8-.9.2.7.5 1.2.9 1.8-.6.1-1.2.4-1.8.9h0zm3.8 11.9c-.7.2-1.2.5-1.8.9-.2-.7-.5-1.2-.9-1.8.6-.2 1.2-.5 1.8-.9.2.7.4 1.3.9 1.8zm-.2-18.5c-.7.3-1.2.5-1.8 1-.3-.7-.5-1.3-1-1.8.7-.2 1.3-.5 1.8-.9.3.6.6 1.2 1 1.7h0zm-1.9-17.5c-.3-.7-.5-1.3-1.1-1.9.8-.2 1.4-.5 2-1.1.1.8.5 1.5 1 2.1-.7.2-1.3.5-1.9.9zm1.7-5.3c-.2-.9-.5-1.6-1.3-2.2 1-.1 1.8-.5 2.5-1.4 0 1.1.4 1.8 1.1 2.5-.9.1-1.6.5-2.3 1.1h0zm5.6 1.8c-.2-.9-.5-1.6-1.3-2.2a3.47 3.47 0 0 0 2.3-1.2c.1 1 .4 1.7 1.1 2.4-.7.1-1.4.4-2.1 1zm1.7-5.3c-.1-1.2-.6-2-1.5-2.7 1.2-.1 2.1-.4 2.8-1.5.1 1.2.5 2.1 1.5 2.9-1.2.1-2.1.5-2.8 1.3zm1.7-5.5c-.1-1.2-.5-2.1-1.7-2.8 1.4 0 2.4-.5 3.2-1.9-.1 1.5.3 2.5 1.4 3.3-1.4.2-1.8.4-2.9 1.4h0zm33.6-21.5c-1.4.1-2.5 1.3-2.5 2.6 0 1.4 1.1 2.6 2.6 2.6 1.4.1 2.5-.9 2.7-2.3-.9-1-1.7-2.1-2.8-2.9zm-7.1 3.6c-1.5 0-2.8 1.3-2.7 2.8 0 1.5 1.3 2.7 2.7 2.7 1.5 0 2.8-1.3 2.7-2.8 0-1.4-1.2-2.7-2.7-2.7zm6.4 2c-1.1-.4-2.1-.1-2.9.8-.7.8-.9 1.7-.5 2.8 1.7-.7 3.5-.7 5.2-1.5-.2-1.1-.8-1.8-1.8-2.1zm-99-19.4c-1.3 0-2.4 1.1-2.5 2.4s1.1 2.5 2.4 2.5 2.4-1.1 2.5-2.4-1.1-2.5-2.4-2.5zm-9.4 9.2c-1.4.2-2.4 1.4-2.4 2.7.1 1.3 1.1 2.4 2.4 2.4l2.7-3c-.3-1.4-1.5-2.3-2.7-2.1zm2.1-5.5c-1.4 0-2.5 1.1-2.5 2.5s1.1 2.5 2.5 2.5 2.5-1.1 2.5-2.5c-.1-1.3-1.2-2.5-2.5-2.5zm5.8 1.8c-1-.1-1.9.2-2.4 1.1-.5.8-.6 1.6-.1 2.6 1.4-.9 2.9-1.5 4.5-2.2-.4-.9-1.1-1.3-2-1.5zm-11.8 10.4c-.7 1.2-.4 2.7.7 3.4.8-1.5 1.5-3.1 2.6-4.4-1.1-.6-2.6-.1-3.3 1zm20.2-13.7c-1.1-.8-2.6-.5-3.4.6s-.6 2.5.4 3.3c1.2-.3 2.4-.6 3.6-.7.8-1 .5-2.4-.6-3.2zm29.4 30.2c.3-1.2-.2-2.5-1.3-3.1-1.7-.9-3-.4-4.1 1.1-.1-1.9-.9-3-2.4-3.3-1.2-.2-2.5.4-3.1 1.6-.3.7-.4 1.4-.1 2.2a3.53 3.53 0 0 0 1.5 1.7c-1.4-.2-2.4.3-3.3 1.5.1-1.5-.5-2.5-1.9-3.2 1.5.3 2.7-.3 3.3-1.4s.5-2.4-.3-3.2c-.8-.9-2-1.2-3.2-.7l-1.2 2.8c-.5 1.1-.3 1.5.7 2.2.1.1.3.1.2.2-.7 0-1.3-.1-1.9.3-.5 1.3-.8 2.6-1.1 4 .1.5.6.7.9 1.1-.3.1-.7 0-1 .4.1 3.5.9 7.1.5 11l1-.7c.1.8.5 1.4 1 2.1-.9 0-1.4.8-2.2.9-.5 1.6-1 3.1.6 4.7-1.1-.1-1.5.8-2.4.8l-1.1 3c.3-.1.4-.1.6-.1.1.7.5 1.2.9 1.8-.7.2-1.2.5-1.7.8-.2-.1-.1-.5-.4-.5-.7 1.8-1 3.6.4 5.2-.6.3-1.2.4-1.5.8l-.5 2.5c-.1.8-.6 1.6.2 2.3l-.7.3c-.6 3.7-1.5 7.3-2.6 10.9-.6 1.9-1.5 3.7-2.3 5.5-.4.9-.9 1.7-1.3 2.5-.3.6-.1 1.1.3 1.5 1.5 1.7 3.4 1.6 5.3 1.2.6-.1 1.2-.2 1.5-.9.6-1.7 1-3.5 1.4-5.3.3-1.4.3-3 .9-4.4l2.6-5c1-1.9 2.2-3.7 3.5-5.4.8-.9 1.6-1.8 2.1-2.9-.2-.3-.3-.6-.5-.9 2.5-1.1 3-2.6 1.9-5.6.4-.2.9-.2 1.3-.6-.7-7.8 2-14.5 6-20.8 0-.6-.5-.7-.6-1.1 1.9 0 2.4-1.5 2.8-2.8.4-1.1-.4-2.1-1.4-2.8 1.4-.1 2.4-.9 2.7-2.2h0zm-13.2 2.8c.1 1.2.4 2.1 1.4 2.8-1.2 0-2 .4-2.7 1.3-.1-1.1-.6-2-1.6-2.6 1.2 0 2.1-.5 2.9-1.5zm-3.1 9.3a3.84 3.84 0 0 0-1.3-2.2c1-.1 1.7-.5 2.4-1.3.1 1 .4 1.8 1.1 2.5-.8.1-1.5.4-2.2 1zm-8.6 46.1c-.2-.7-.5-1.2-.9-1.8.7-.2 1.2-.5 1.8-.9.2.7.5 1.2.9 1.8-.7.2-1.3.4-1.8.9zm1.7-5.6a4.35 4.35 0 0 0-.9-1.8c.6-.2 1.2-.5 1.8-.9.2.7.5 1.2.9 1.8-.6.2-1.2.5-1.8.9h0zm1.9-5.5c-.2-.7-.5-1.3-.9-1.8.7-.3 1.3-.5 1.8-1 .2.7.5 1.3.9 1.8-.7.3-1.3.5-1.8 1h0zm1.8-5.6c-.2-.6-.5-1.2-1-1.8.7-.2 1.3-.5 1.8-1 .2.7.5 1.3.9 1.8-.6.3-1.1.6-1.7 1h0zm1.8-5.5c-.2-.7-.5-1.2-.9-1.8.6-.2 1.2-.5 1.8-.9.2.7.5 1.2 1 1.8-.8.1-1.3.4-1.9.9zm1.8-5.6c-.2-.7-.5-1.2-1-1.8.7-.2 1.3-.5 1.8-.9.2.6.5 1.2.9 1.8-.6.2-1.1.4-1.7.9zm1.8-5.6c-.2-.6-.5-1.2-.9-1.8.7-.2 1.2-.5 1.8-.9.2.7.5 1.2.9 1.8-.7.2-1.2.5-1.8.9zm1.8-5.5a4.98 4.98 0 0 0-1-1.9c.7-.3 1.3-.5 1.9-1.1.2.8.5 1.5 1 2.1-.7.2-1.3.4-1.9.9h0zm1.6-5.2c-.2-.9-.5-1.6-1.2-2.3 1-.2 1.7-.5 2.4-1.4.1 1 .4 1.8 1.1 2.4-.9.2-1.6.5-2.3 1.3zm1.7-5.2c-.1-1.1-.4-2-1.4-2.7 1.2-.1 2.1-.6 2.8-1.7 0 1.2.3 2.1 1.3 2.9-1.2.1-2 .5-2.7 1.5zm1.7-5.1c.2-1.5-.3-2.5-1.6-3.3 1.5 0 2.4-.5 3.2-1.8-.2 1.4.2 2.4 1.4 3.2-1.4.1-2.4.6-3 1.9zm.7-9a2.73 2.73 0 1 0 0-5.6 2.73 2.73 0 1 0 0 5.6zm13.9 1.8c.5-1.4-.2-3-1.6-3.6s-3 .1-3.7 1.5c-.6 1.3-.1 2.9 1.1 3.5l1-1.5.2 1.8c1.2.4 2.5-.4 3-1.7h0zm-59-7c-.3 1.1 0 2.2.7 2.7l1.7-4.5c-1-.1-2.1.7-2.4 1.8zm44.7-51.4c1 0 1.7-.8 1.7-1.8s-.8-1.7-1.7-1.7c-1 0-1.8.7-1.8 1.7a1.79 1.79 0 0 0 1.8 1.8zm36.4 46.1c0-1.5-1.2-2.7-2.7-2.6-1.5 0-2.7 1.2-2.6 2.7 0 1.5 1.2 2.7 2.7 2.6 1.4-.1 2.6-1.3 2.6-2.7zm6.6 12c1.5 0 2.8-1.3 2.8-2.8 0-1.6-1.3-2.8-2.8-2.8s-2.8 1.3-2.8 2.8 1.3 2.8 2.8 2.8zm4.6-8.4c0-1.5-1.2-2.7-2.7-2.8-1.5 0-2.8 1.2-2.8 2.7s1.2 2.7 2.7 2.8 2.8-1.2 2.8-2.7zm-10.1 6.5a2.73 2.73 0 0 0 2.8-2.8c0-1.6-1.2-2.8-2.8-2.7-1.5 0-2.7 1.2-2.7 2.8-.1 1.5 1.1 2.7 2.7 2.7h0zm11.8-12c0-1.5-1.1-2.6-2.6-2.7-1.5 0-2.7 1.1-2.7 2.6s1.1 2.6 2.6 2.6c1.5.1 2.6-1.1 2.7-2.5zm5.5 1.7c0-1.5-1.2-2.6-2.7-2.6s-2.6 1.2-2.6 2.7 1.2 2.6 2.7 2.6 2.7-1.2 2.6-2.7zm2.9 4.6c1.4 0 2.7-1.2 2.8-2.7 0-1.4-1.2-2.7-2.7-2.7-1.4 0-2.7 1.2-2.7 2.6-.1 1.4 1.1 2.7 2.6 2.8zm-1.9-13.2c1.4 0 2.5-1.1 2.5-2.5s-1.1-2.5-2.5-2.5c-1.3 0-2.5 1.1-2.5 2.5s1.1 2.5 2.5 2.5zm.8 3.1a2.65 2.65 0 0 0-2.6-2.6 2.65 2.65 0 0 0-2.6 2.6 2.65 2.65 0 0 0 2.6 2.6 2.65 2.65 0 0 0 2.6-2.6zm-32.1 17.8c1.5 0 2.8-1.3 2.9-2.8 0-1.5-1.3-2.8-2.8-2.8s-2.8 1.3-2.8 2.8c-.1 1.4 1.2 2.8 2.7 2.8h0zm-11.1-3.6c1.5 0 2.7-1.2 2.8-2.7 0-1.5-1.2-2.8-2.7-2.8s-2.8 1.2-2.8 2.7c0 1.6 1.2 2.8 2.7 2.8h0zm-1.2-10.2c0-1.5-1.1-2.6-2.6-2.6s-2.6 1.1-2.6 2.6 1.1 2.7 2.6 2.7c1.4-.1 2.6-1.2 2.6-2.7h0zm-1.7 5.7c0-1.5-1.3-2.8-2.8-2.7-1.5 0-2.7 1.3-2.7 2.8s1.3 2.7 2.7 2.7c1.5-.1 2.8-1.3 2.8-2.8zm-4.6 8.4c1.5 0 2.8-1.3 2.8-2.9 0-1.5-1.4-2.8-2.9-2.8s-2.8 1.3-2.8 2.8c.1 1.5 1.4 2.9 2.9 2.9h0zm13.1-2.2a2.73 2.73 0 0 0 2.8-2.8c0-1.6-1.2-2.7-2.7-2.8-1.6 0-2.8 1.2-2.8 2.7-.1 1.7 1.1 2.9 2.7 2.9h0zm11 3.7c1.5.1 2.9-1.3 2.9-2.8s-1.3-2.8-2.8-2.9c-1.5 0-2.9 1.3-2.9 2.8s1.3 2.9 2.8 2.9h0zm32.2-17.8a2.65 2.65 0 0 0-2.6-2.6 2.65 2.65 0 0 0-2.6 2.6 2.65 2.65 0 0 0 2.6 2.6 2.65 2.65 0 0 0 2.6-2.6zm-60.3-47.8c.7 0 1.3-.4 1.5-1.1.2-.6.1-1.2-.5-1.7l-1.2.9c-.4.3-.9.6-1.3.9.2.7.8 1 1.5 1zm15.9 51.8c0-1.5-1.2-2.7-2.6-2.7-1.5 0-2.7 1.2-2.7 2.6 0 1.5 1.2 2.7 2.6 2.7 1.5.1 2.7-1.1 2.7-2.6zm16.9 5.4c0-1.5-1.2-2.7-2.7-2.8-1.5 0-2.8 1.2-2.8 2.7s1.2 2.8 2.7 2.8c1.5.1 2.8-1.1 2.8-2.7zm-20-78.3c.5-.1.9-.4.9-1s-.3-.9-.9-.9-1 .4-.9 1c-.1.5.3.8.9.9zm1.8 13.4c.7 0 1.4-.6 1.4-1.4 0-.7-.7-1.5-1.4-1.5s-1.4.6-1.4 1.4c0 .7.7 1.4 1.4 1.5zm-3.8-7.7c.7 0 1.1-.4 1.2-1.1-.1-.7-.4-1.2-1.1-1.2s-1.2.4-1.2 1.1.5 1.2 1.1 1.2h0zm5.7 1.9c.8 0 1.1-.5 1.2-1.1 0-.8-.5-1.3-1.2-1.3-.8 0-1.2.4-1.2 1.2-.1.7.5 1.2 1.2 1.2h0zm-7.4 3.9c.8 0 1.3-.6 1.3-1.4s-.6-1.3-1.4-1.3-1.3.6-1.3 1.4c0 .7.6 1.3 1.4 1.3zm-3.7 11.4c.9 0 1.7-.8 1.7-1.7s-.8-1.7-1.7-1.7-1.6.8-1.7 1.7c.1.9.9 1.7 1.7 1.7zm11.4-3.1c.3.8 1.2 1.3 2 1 .8-.2 1.2-1 1-1.8-.7-.3-1.6-.4-1.9-1.3-.9.4-1.3 1.2-1.1 2.1zm-13.2 8.8a1.79 1.79 0 0 0 1.8-1.8c0-1-.8-1.8-1.8-1.9s-1.9.8-1.9 1.8c.1 1 1 1.9 1.9 1.9h0zm3.6-11.4c.8 0 1.6-.7 1.6-1.5a1.54 1.54 0 0 0-1.5-1.5c-.8 0-1.5.7-1.6 1.5 0 .7.7 1.5 1.5 1.5h0zm14.9 11.3a1.79 1.79 0 1 0 0-3.6 1.79 1.79 0 0 0-1.8 1.8c0 .9.9 1.8 1.8 1.8zm18.8 18.7c1.2 0 2.2-1.1 2.2-2.2a2.22 2.22 0 0 0-2.2-2.2c-1.2 0-2.2 1.1-2.2 2.2a2.22 2.22 0 0 0 2.2 2.2zm16.4 10.5l-3.1-3.5c-1.1 1-1.1 2.5-.2 3.5.9.9 2.4.9 3.3 0zm-20.3-18c1.1 0 2.1-1 2-2.1 0-.8-1.3-2.1-2.1-2-1.1 0-2.1 1-2 2.1 0 1.1 1 2 2.1 2zm13.1 16.8c1.3 0 2.4-1 2.4-2.3s-1-2.4-2.3-2.4-2.4 1-2.4 2.3 1 2.4 2.3 2.4h0zm-4.1-7.5c.9.2 1.6-.1 2.2-.9-.9-1.1-1.7-2.4-2.9-3.3-.9.6-1.2 1.3-1.1 2.3.2 1 .8 1.7 1.8 1.9zm-18.3-18.7a1.79 1.79 0 1 0 0-3.6 1.79 1.79 0 0 0-1.8 1.8c-.1 1 .8 1.8 1.8 1.8zm-4.8-7.9c.7.5 1.4.5 2.1 0 .6-.5.8-1.1.5-1.8a5.8 5.8 0 0 0-3.2 0c-.2.8 0 1.4.6 1.8h0zm9.7 9.6c.9.3 1.8 0 2.4-.9l-1.5-2.7c-1.1-.1-1.8.5-2 1.4-.3 1 .2 1.9 1.1 2.2zm-3.5-7.4c.7.1 1.3 0 1.7-.7-.7-.9-1.8-1.3-2.6-2.1-.6.5-.6 1.1-.5 1.6.3.6.8 1.1 1.4 1.2z" />
		<path
			d="M174.5 735.3h-.2c-2.5-.2-5.3-3.7-5.5-7.9-2.1-.4-5.7-2.1-6.9-3.5-.6-.6-2.2-2.7-1.7-4.1.2-.6.6-1 1.3-1.1 2.3-.5 4.4-.8 6.7-.9a51.79 51.79 0 0 1 .9-7.8c.3-1.8 1.2-2.4 2-2.6 2.7-.7 6.3 3.5 7 4.3 1.1 1.3 2.7 3.6 2.1 4.9l-.6 1.3c3.2.4 7.8 1.4 8.8 3.5.2.4.2.8 0 1.2-.6 1.1-2.8 1.4-5.4 1.8-.4 0-.6.1-.9.1h0c-1.2.2-2.4.5-3.7.9l-.3.1c-.1 1.4-.3 2.7-.6 4l-.5 3.2c-.3 1.9-1.4 2.6-2.5 2.6zm-4.9-9.4l.8.8c-.1 4.1 2.6 7 4 7.1.2 0 .8.1 1-1.3l.5-3.3c.3-1.5.5-2.9.6-4.4v-.6l1.4-.4c1.3-.4 2.6-.7 3.9-.9.2 0 .5-.1.9-.1 2.3-.3 3.7-.6 4.1-.9-.7-1.1-4.1-2.2-8.5-2.6l-.7-1c.3-.9.7-1.7 1-2.3.1-1.1-4.2-6.6-6.9-7-.4-.1-1-.2-1.3 1.4-.5 2.8-.8 5.5-.9 8.3l-.7.8c-2.6.1-4.7.4-7.2 1h-.1c-.1.3.5 1.6 1.4 2.6 1.3 1.1 5.3 2.8 6.7 2.8zm189.7 106.3c-.9 0-1.7-.1-2.4-.2-7.2-1.4-12.9-7.3-16.4-13.6 0 3.2-2.4 5.1-6.5 5.1h-.1c-8.6 0-31.6 4-39.2 6.8-.7.3-1.5.4-2.4.4-4.2 0-8.5-4-10.7-8.2-1 1.4-2.5 2.2-4.4 2.2-1.3 0-2.6-.4-4-1.1-6.3-3.2-21.5-8.8-32.3-11.5l-.4 1c-1.8 5-3 8.3-4.5 13.3-1.1 3.8-3.2 4.6-4.8 4.6-2.2 0-4.6-1.7-6.8-4.5-2.9-3.9-5.2-10.1-3.7-15.1 3.9-13.2 8.3-24.4 16.5-36.2-1.2-2.1-1.4-4.7-.4-7.3 1.3-3.7 4.5-6.5 8.3-7.3 4.4-1 6.7-1.2 10.8-1.2 10.2 0 35.6 6.4 36.8 18.4.8 8.9-7.2 16.7-24.4 23.7 4.8 2.6 10.7 6.2 13.2 11.6 1.9-5.3 4-10.1 6.2-14.7-.6-4.7 1.5-8.6 5.9-11.1 1.5-2.6 3.2-5.4 4.6-7.4-2.1-2.2-3-5.6-2.3-8.9.8-3.6 3.3-6.3 6.9-7.3 8.2-2.3 16.8-3.4 25.6-3.4a96.53 96.53 0 0 1 7.6.3c5 .4 9.4 2.7 12 6.5 1.1 1.6 1.8 3.3 2 4.9 9.1-7 22.3-13 28.6-13 8.9 0 11.5 4.4 14.4 9.4l2.2 3.7c2.6 3.9 1.8 6.8 1.1 8.2-1.1 2.1-3.2 3.5-5.5 3.6h-1.1c-4.3 0-6-1.4-8.4-3.3-.5-.4-1.1-.9-1.8-1.4-.3-.2-.7-.4-1.2-.8-2.1.6-5.1 1.9-8.1 3.5 4.7 0 9.6.4 14.1 3 5.4 3.1 8.8 6.8 10.3 11 5.6-13.3 17.5-26.9 29.8-34 4.5-2.7 9.1-3.9 13.9-3.9 10.8 0 12.9 8.2 14.8 15.4.2.9.5 1.8.7 2.7 1.2 4.5 1 8.1-.8 10.4-1.2 1.6-3.1 2.5-5.5 2.5-3.9 0-9-2.7-10-6.6-.4-1.7-.9-2.9-1.7-4.2-5.5 2.1-13.7 10.1-16.3 13.8-6.1 8.5-9.1 14-10.6 19h.5c9.8 0 26.7-6.5 37.9-10.8 2-.8 3.9-1.5 5.5-2.1 1.1-.4 2.1-.6 3-.6 5.1-13.9 17-30.5 23.4-37.9 1.2-1.4 2.7-2.1 4.3-2.1 3.7 0 7.1 3.9 8.9 7.7 1.7 3.7 2.5 8.9-.5 12.3-5.7 6.4-10.5 12.4-17.1 27.6-1.4 3.3-2.3 5.6-2.7 6.9 3-1.9 10.8-9 20.3-20.5 7.1-8.5 15.2-19.7 19.7-27.4.9-1.5 2.5-2.3 4.6-2.3 3.6 0 8.5 2.4 11 6 1.3-2 3.2-3.4 5.6-4.1 8.2-2.3 16.8-3.4 25.6-3.4a96.53 96.53 0 0 1 7.6.3c9.4.7 14.3 7.9 14.1 12.5-.1 3-2.2 4.9-5.5 4.9h0-.9c-1.1-.1-2.4-.1-3.8-.1-7.1 0-15.4 1.3-20 2.1l-2.4 3.2-.1.1 13.1-.2c6.2 0 9.4 3.9 9.4 7.7 0 3.5-2.8 7.2-8.8 7.2-2.6 0-16.4 2.8-23.8 5.4-.4.8-.8 1.6-1.2 2.5-.4.8-.8 1.6-1.1 2.4 6.3-1 11.2-1.3 18.6-1.3h3c7.4.1 13.6 6.4 13.6 11.5 0 3.2-2.4 5.1-6.5 5.1h-.1c-8.6 0-31.6 4-39.2 6.8-.7.3-1.5.4-2.4.4-3.2 0-6.7-2.2-9.3-6-1.8-2.5-3.4-6.1-2.5-8.7 2.2-6.5 4.6-12.1 7.4-17.8-.1-1-.1-1.9 0-2.8-5 11.6-9.9 24.8-10 29.2-.2 3.8-2.2 6-5.4 6-4.6 0-10.9-4.9-12.6-10.9-5.6 5.7-11.7 10.9-19.1 11.4h-.3c-4.8 0-12.6-6.7-15.8-14.9-1.2 1.1-2.5 1.9-3.8 2.4-1.1.4-2.4 1-3.8 1.5-9.9 4-24.9 10-35.4 10-2.1 0-4-.3-5.6-.8-6-1.9-14.5-10.6-15-17v-.2c-7 11.2-22.7 20-32 20zm-10.4-28.3c.5 1 5.4 8.4 9.8 9.3h.3c3.5 0 14-7.8 17-13.1-1.8-.3-3.6-.4-5.6-.4-3.4 0-6.8.4-10.4.8l-1.5.2c-1.3.1-2.7.3-4.1.3-.6 0-1.2 0-1.8-.1-6.6-.8-12-9.8-12.4-15.2-.1-2.4 1.1-5 3.5-7.9-1.1-.1-2.3-.1-3.6-.1-7.1 0-15.4 1.3-20 2.1l-2.4 3.2-.1.1 13.1-.2c6.2 0 9.4 3.9 9.4 7.7 0 1.9-.8 3.7-2.3 5-1.6 1.4-3.9 2.2-6.5 2.2s-16.4 2.8-23.8 5.4c-.4.8-.8 1.6-1.2 2.5-.4.8-.8 1.6-1.1 2.4 6.3-1 11.2-1.3 18.6-1.3h3c4.4 0 8.4 2.3 10.9 5.2-.4-1.3-.7-2.6-.8-3.8-.5-3.9.4-6.7 2.6-7.8 1.6-.7 3-1.1 4.3-1.1 1.8.2 4.1 1 5.1 4.6zm178.7-26.3c-1.6 2.3-3.9 6.8-6.4 12.3.9-1 2-1.9 3.4-2.7 1.5-2.6 3.2-5.4 4.6-7.4-.7-.6-1.2-1.4-1.6-2.2zm-269.5.6c-2.1 2.6-4.1 5.6-6 9.1 5.2-1.9 13.7-5.3 19.2-8.2-4.1-.6-8.7-.8-13.2-.9zM75.7 748.4c-5.4 0-9.9-5.7-10.6-10.9H65c-6.5.4-12.6 1.4-19.2 3.1-5.5 1.4-11 3.2-16.9 5.2l-1.8.6c-1 .3-1.9.5-2.9.5-2.7 0-5.2-1.3-7-3.8-2.7-3.4-3.8-8.5-2.7-12.5 4.3-16.2 19.8-41.5 22.5-44.9 1.2-1.4 2.3-2.7 3.4-4.3 1.1-1.8 3-2.7 5.2-2.7 3.8 0 8.2 2.8 10.1 6.3 1.3 2.4 1.2 4.8-.1 6.8-1.1 1.7-2.4 3.3-3.6 4.8-1.4 1.7-2.6 3.2-3.7 5-3.8 6.3-7.8 13.2-11.3 20.9 5.6-1.2 11.3-1.4 16.8-1.6l6.9-.3h.7c2.8 0 5.4 1 7.3 2.8 4.1-11.8 8.1-21.1 15-32.1-1.3-3.1-1.2-7.2.5-10 1-1.8 3.1-4 7.1-4.2 3.8-.3 6.7-.3 9.8-.3 10.2 0 28 2.2 33.1 17.1 1 2.8.6 5.7-1.1 8.7-6.8 12.2-33.3 22.7-45.9 25.6l-5.3 15.1c-1.3 4.4-4.4 5.1-6.2 5.1zm28.5-53.1c-2.4 3.4-4.5 6.7-6.4 10 8-2.9 14.2-6.2 17.5-9.4-3.4-.5-7.8-.6-11.1-.6z" />
	</g>
	<path
		d="M101.3 677.5c8.9 0 27.1 1.6 32.2 16.5 4.8 14.1-30 29.5-46.9 33.2l-5.5 15.6c-1.1 3.2-3.1 4.6-5.4 4.6-4.4 0-9.6-5-9.6-11-.4.1-.7.1-1.1.1-7.1.5-13.3 1.6-19.4 3.2s-12.2 3.6-18.7 5.8c-.9.3-1.7.4-2.5.4-6.5 0-10.4-8.9-8.8-15 4.3-16.3 19.9-41.5 22.3-44.6 1.1-1.3 2.2-2.6 3.4-4.4 1-1.6 2.6-2.3 4.4-2.3 5.5 0 12.5 6.5 9.2 11.5-2.2 3.4-5.2 6.3-7.4 9.8-4.7 7.7-8.6 14.8-12.2 22.9 8.4-2.1 16.9-1.8 25.5-2.3h.7c3.4 0 6.1 1.6 7.7 3.7 4.5-12.9 8.5-22.5 15.8-33.9-2.3-4.7-1-12.8 6.5-13.3 3.9-.5 6.8-.5 9.8-.5m-5.6 29.6c8.9-3 18-7.3 21.7-11.9-3.9-.8-9.7-.9-13.7-.9-3.1 4.3-5.7 8.5-8 12.8M484 758.4c6 0 12.6 12.7 7.6 18.3-5.4 6-10.5 12.3-17.3 27.9-1.2 2.8-3.8 8.8-2.9 8.8 1.8 0 11-8 22.1-21.4 7.4-8.7 15.5-20.1 19.8-27.5.7-1.2 2.1-1.8 3.7-1.8 3.9 0 9.4 3.1 11.1 7.1.9-2.4 2.8-4.4 5.8-5.2 8.1-2.2 16.7-3.4 25.3-3.4 2.5 0 5 .1 7.5.3 12.9 1 17.4 15.4 8.7 15.4h-.8c-1.2-.1-2.5-.2-3.9-.2-6.2 0-13.9 1-20.6 2.2-1.2 1.8-2.6 3.5-3.9 5.3l15.2-.2c10.8 0 11.3 12.9.6 12.9-2.7 0-17 2.9-24.6 5.6l-3.3 7c7.4-1.2 12.6-1.6 20.2-1.6h3c11 .1 18.1 14.6 7.2 14.6h-.1c-8.5 0-31.5 3.9-39.5 6.9-.7.3-1.3.4-2 .4-6.1 0-12.3-9.4-10.8-13.4 2.3-6.7 4.7-12.5 7.4-18-.7-4.8 1.6-8.4 5.6-10.5 1.5-2.6 3.3-5.6 5.1-8.3-1.3-1.1-2.1-2.6-2.5-4.2-.2.3-.4.6-.6 1-4.7 6-19.3 40.3-19.6 48.3-.2 3.6-2 5.1-4.4 5.1-4.6 0-11.2-5.4-12.1-11.9-5.2 5.4-11.8 11.9-19.7 12.5h-.3c-4.4 0-12.7-6.9-15.4-15.7-1.3 1.4-2.8 2.6-4.6 3.3-9 3.5-27 11.4-38.8 11.4-2 0-3.7-.2-5.3-.7-5.7-1.8-13.9-10.1-14.3-16.1-.1-1.2-.1-2.4 0-3.7-6.1 12-23.5 22.4-33.4 22.4-.8 0-1.5-.1-2.2-.2-14.8-2.9-23.6-26.3-17.1-29.5 1.3-.6 2.6-1 3.8-1 1.9 0 3.4 1 4.2 3.7 0 .2 5.3 8.9 10.5 9.9h.5c4.5 0 16.5-9.6 18.5-14.8a43.44 43.44 0 0 0-7.1-.6c-4 0-7.8.5-12 1-1.3.1-2.6.3-4 .3-.6 0-1.1 0-1.7-.1-6.1-.7-11.2-9.3-11.4-14.2-.1-2.7 1.8-5.8 4.9-8.9-.4.1-.8.1-1.3.1h-.8c-1.2-.1-2.5-.2-3.9-.2-6.2 0-13.9 1-20.6 2.2-1.2 1.8-2.6 3.5-3.9 5.3l15.2-.2c10.8 0 11.3 12.9.6 12.9-2.7 0-17 2.9-24.6 5.6l-3.3 7c7.4-1.2 12.6-1.6 20.2-1.6h3c11 .1 18.1 14.6 7.2 14.6h-.1c-8.5 0-31.5 3.9-39.5 6.9-.7.3-1.3.4-2 .4-4.6 0-9.3-5.4-10.6-9.7-.5 2.3-2.1 3.7-4.4 3.7-1.1 0-2.3-.3-3.6-1-6.6-3.3-22.6-9.2-33.4-11.8-2.2 6.1-3.5 9.6-5.2 15.2-.8 2.8-2.2 3.9-3.8 3.9-4.9 0-11.7-10.8-9.5-18.4 4.3-14.3 8.7-25 16.7-36.5-3.3-4.5.3-12.2 6.9-13.7 4.2-.9 6.4-1.2 10.6-1.2 9.4 0 34.7 6 35.8 17.5 1 11.3-13.5 18.7-25.8 23.4 5.5 2.9 14.1 7.5 15.6 14.8 2.3-6.5 4.7-12.2 7.3-17.6-.7-4.8 1.6-8.4 5.6-10.5 1.5-2.6 3.3-5.6 5.1-8.3-4.6-3.9-3.7-13 3.6-15.1 8.1-2.2 16.7-3.4 25.3-3.4 2.5 0 5 .1 7.5.3 9.2.7 14.1 8.3 13 12.5 9-7.5 23.3-14.2 29.7-14.2 10.3 0 11.3 6 15.8 12.6 3.9 5.9-.1 10.1-3.6 10.2h-1c-4.9 0-6-1.9-9.7-4.6-.4-.2-.9-.6-1.4-1-3 .6-7.9 3-12.1 5.7h3.5c4.8 0 9.4.4 13.8 2.8 6.9 4 10 8.7 10.5 13.5 4.9-14.1 17.6-29.1 30.6-36.6 3.6-2.1 8-3.8 13.4-3.8 11.3 0 12.3 9.3 14.5 17.4 2.1 7.4-.4 11.6-5.3 11.6-3.5 0-8.2-2.5-9-5.9-.6-2.1-1.1-3.6-2.2-5.1-5.7 1.8-14.5 10.2-17.5 14.4-6.5 9.1-9.7 14.9-11.1 20.6.6.1 1.1.1 1.8.1 11.8 0 33.2-9 43.7-12.9 1.1-.4 2-.6 2.8-.6h.6c4.8-13.7 16.7-30.6 23.4-38.3 1.3-1 2.5-1.5 3.8-1.5m-226.4 18.8h0c-2.8 3.3-5.3 7.3-7.6 11.9 5.9-2.1 18.3-7 24.2-10.5-4.8-1.1-10.7-1.3-16.6-1.4M101.3 675.5c-3.1 0-6 0-9.9.3-3.5.2-6.3 1.9-7.9 4.7-1.7 3-2 7-.7 10.4-6.6 10.5-10.4 19.5-14.4 30.6-2-1.4-4.3-2.1-6.9-2.1h-.8l-6.9.3c-4.9.2-10 .4-15 1.2 3.3-7 6.9-13.3 10.4-19.1 1-1.6 2.3-3.2 3.6-4.8 1.3-1.5 2.6-3.1 3.7-4.9 1.5-2.3 1.6-5.1.1-7.8-2.1-3.9-6.8-6.8-11-6.8-2.6 0-4.7 1.1-6.1 3.2-1.2 1.7-2.3 3-3.3 4.2l-.1.1c-2.7 3.5-18.4 28.9-22.7 45.3-1.1 4.3.1 9.7 2.9 13.4 2.1 2.7 4.9 4.2 7.8 4.2 1 0 2.1-.2 3.2-.5l1.8-.6c5.8-1.9 11.3-3.7 16.8-5.1 6.2-1.6 12-2.6 18.2-3.1 1.1 6.3 6.7 10.9 11.4 10.9 3.4 0 6.1-2.2 7.3-5.9l5.1-14.6c13.3-3.2 39.1-13.6 46-26 1.8-3.3 2.2-6.5 1.2-9.6-3.6-11.6-15.7-17.9-33.8-17.9h0zm-1.2 27.9c1.4-2.3 2.9-4.7 4.6-7.1a121.58 121.58 0 0 1 8.3.3c-3 2.3-7.4 4.6-12.9 6.8h0zm383.9 53c-1.9 0-3.6.8-5 2.4-6.4 7.3-18.1 23.7-23.4 37.6-.8.1-1.7.3-2.6.6l-5.5 2.1c-10.8 4.1-26.8 10.3-36.6 10.7 1.6-4.6 4.6-9.8 10-17.4 2.8-3.9 10-10.8 15.1-13.1.4.8.8 1.8 1.1 3.2 1.1 4.3 6.6 7.4 11 7.4 2.7 0 4.9-1 6.3-2.9 1.4-1.8 2.6-5.2.9-11.3-.2-.9-.5-1.8-.7-2.7-1.8-7.2-4.1-16.1-15.7-16.1-5 0-9.7 1.3-14.4 4.1-11.9 6.8-23.3 19.6-29.3 32.4-1.8-3.5-5-6.6-9.5-9.2 1.2.5 2.7.7 4.6.7h1.1c2.6-.1 5.1-1.8 6.3-4.2.8-1.6 1.7-4.9-1.1-9.2-.8-1.2-1.5-2.4-2.2-3.6-3-5.1-5.8-9.9-15.3-9.9-6.3 0-18.8 5.6-28 12.3-.4-1.3-1-2.5-1.9-3.7-2.8-4-7.5-6.5-12.8-6.9a97.18 97.18 0 0 0-7.7-.3c-8.9 0-17.6 1.2-25.9 3.4-3.9 1.1-6.8 4.1-7.6 8-.7 3.3 0 6.8 2 9.2-1.2 1.9-2.7 4.3-4 6.6a17.42 17.42 0 0 0-2.6 1.9c2.6-3.4 3.7-7 3.4-10.7-1.3-13.5-29.1-19.3-37.8-19.3-4.2 0-6.6.3-11 1.3-4.1.9-7.6 4-9 8-1 2.7-.9 5.4.2 7.6-8.1 11.7-12.4 22.9-16.3 36-1.7 5.8 1 12.3 3.8 16 2.4 3.2 5.1 4.9 7.6 4.9 1.5 0 4.3-.7 5.7-5.3 1.5-4.9 2.7-8.2 4.5-13.2v-.1c10.7 2.8 25.2 8.1 31.2 11.2 1.5.8 3.1 1.2 4.5 1.2 1.7 0 3.1-.5 4.2-1.5 2.3 3.8 6.4 7.5 10.8 7.5.9 0 1.8-.2 2.7-.5 7.5-2.8 30.3-6.8 38.8-6.8h.1c3.8 0 5.9-1.5 6.9-3.4 3.6 5.6 9.1 10.6 15.8 11.9.8.2 1.7.2 2.6.2 9 0 23.8-8 31.9-18.4 1.9 6.4 9.6 13.8 15.3 15.6 1.7.5 3.6.8 5.9.8 10.7 0 25.8-6 35.7-10 1.4-.6 2.7-1.1 3.8-1.5s2.1-1 3.1-1.7c3.6 8.1 11.3 14.3 16.2 14.3h.4c7.2-.5 13.2-5.2 18.6-10.6 2.4 5.8 8.4 10.1 13.1 10.1 2.9 0 6.2-1.8 6.4-7 0-1 .3-2.5.9-4.4.5 1.8 1.5 3.6 2.5 5 2.8 4 6.6 6.4 10.1 6.4.9 0 1.8-.2 2.7-.5 7.5-2.8 30.3-6.8 38.8-6.8h.1c5.5 0 7.5-3.2 7.5-6.1 0-5.6-6.5-12.4-14.6-12.5h-3c-6.7 0-11.4.3-16.9 1 .1-.2.2-.5.3-.7.3-.7.7-1.4 1-2.1 7.8-2.7 20.9-5.2 23.1-5.2 6.7 0 9.8-4.3 9.8-8.2 0-4.3-3.6-8.7-10.4-8.7l-11.1.1c.4-.5.7-.9 1-1.4 4.6-.8 12.6-2 19.4-2 1.3 0 2.6 0 3.7.1h1c3.8 0 6.4-2.3 6.5-5.9.2-5-5.1-12.8-15-13.5a97.18 97.18 0 0 0-7.7-.3c-8.9 0-17.6 1.2-25.9 3.4-2.2.6-4 1.8-5.4 3.4-2.9-3.3-7.5-5.3-11-5.3-2.5 0-4.4 1-5.5 2.8-4.5 7.6-12.5 18.8-19.6 27.3-7.6 9.1-13.7 15.1-17.4 18.2.4-1 .9-2.2 1.5-3.5v-.1c6.6-15.1 11.4-21.1 17-27.4 2.7-3.1 3-8.2.7-13.4-1.8-4-5.4-8.4-9.8-8.4h0 0zm-163.2 24.3c4.6-.8 12.6-2 19.4-2h1.6c-1.7 2.4-2.6 4.6-2.6 6.7-1.7-2-4.5-3.4-8.4-3.4l-11.1.1c.4-.4.7-.9 1.1-1.4h0zm-66.5 4.7c1.4-2.3 2.8-4.3 4.2-6.2l9.3.4c-4.2 2.1-9.4 4.2-13.5 5.8h0zm120.2-4.5c1.5-.7 2.9-1.2 4-1.6.3.2.6.4.8.5.6.5 1.2.9 1.7 1.4.8.6 1.5 1.2 2.3 1.7-2.8-1.2-5.8-1.8-8.8-2h0zm149.7 4.9c1.2-2.5 2.4-4.7 3.3-6.3.1.1.2.3.3.4-1.1 1.7-2.4 3.8-3.6 5.9h0zm-253.4 15.7c6.1-2.6 10.8-5.2 14.4-8 1.3-1 2.5-2 3.5-3.1-1.5 2.2-2.1 4.8-1.8 7.7-1.9 4-3.7 8.1-5.4 12.5-2.6-3.9-6.9-6.9-10.7-9.1h0zm37.5 2.6c7.8-2.7 20.9-5.2 23.1-5.2 2.9 0 5.4-.8 7.2-2.4 1.3-1.2 2.2-2.7 2.5-4.4 1.3 2.6 3.1 5.1 5.3 6.9-1-.4-1.9-.6-2.6-.6-1.4 0-3 .4-4.7 1.2-1.5.7-3.9 2.9-3.2 8.8 0 .2.1.4.1.6-2.5-1.9-5.7-3.1-9.2-3.2h-3c-6.7 0-11.4.3-16.9 1 .1-.2.2-.5.3-.7a12.81 12.81 0 0 0 1.1-2h0zm41.5-.6c-.4-1.4-1-2.4-1.7-3.2 1.4.8 2.8 1.4 4.3 1.6h.1c.6.1 1.2.1 1.9.1 1.4 0 2.8-.1 4.2-.3l1.5-.2c3.6-.4 6.9-.8 10.3-.8 1.3 0 2.6.1 3.9.2-3.6 4.9-12.3 11.3-15.3 11.3h-.1c-3.7-.7-8.2-7.1-9.1-8.7h0z"
		fill="#cdd6f4" />
</svg>