<svg xmlns="http://www.w3.org/2000/svg" version="1.1" xmlns:xlink="http://www.w3.org/1999/xlink"
  xmlns:svgjs="http://svgjs.com/svgjs" viewBox="0 0 1300 1300" width="64" height="64">
  <path
    d="M1154.5 686.8l-44.4-47.6c-2.1-2.2-5.2-4-6.3-6.6-3.4-8.3-11-12.8-16.4-19.3-5.4-6.4-10.6-13.1-16.3-19.3-22.4-24.1-47.3-45.8-68.5-71.2-18.5-22.1-41.7-39.8-59.4-62.8-6.4-8.3-14-15.5-20.9-23.4-11.5-13.1-22.3-26.6-33.2-40.1-7.6-9.6-15.9-18.8-22.4-29.1-12.1-19.3-24.9-38.4-33.8-59.5-4.1-9.9-10.8-18-16.6-26.8-2.5-3.8-7.9-5.6-11.4-8.9-12.8-12-27.6-18.1-45.4-16.4-8.1.7-15.8.7-21.7-7.2-2.2-3-7.3-4.1-11.3-5.6-8.2-3-10.3-8.4-10.4-17.1-.3-17.1 5-33.6 3.7-50.9-.7-8.6-3-18 2.7-26.4.7-1 .8-3.7 0-4.4-5.5-5.1-2.2-11.5-2.9-17.3-.8-7.3-1-14.4-2.7-21.8-6-26.6-22.4-34.6-43.3-36.4-11-1-19 6.4-27.5 11.1-8.7 4.8-11.8 14.9-15.6 23.9-7.7 18-6.1 37.4-8.4 56.1l-4.3 36.9c-1.7 12.8-6.8 25.4-18.5 33.6l-10.7 7.6c-7.1 4.9-13.9 10.7-21.6 14.5-5.9 2.9-12.4-1.4-18.5-2.8-.5-.1-1 0-1.5 0-11.6-1.6-23 .7-33.9 3.5-6.7 1.8-14 3.5-20 7.1-13.2 7.9-24.1 18.6-31.2 32.6-14.3 28.6-37.7 50.1-58 73.9-2.8 3.3-5.7 7-9.3 9.8-3.8 3-8.3 5.3-11.6 8.8-6.2 6.4-11.5 13.7-17.5 20.3-12.3 13.3-26.2 25-37 39.8-8.9 12.4-20.6 22.9-28.8 35.7-17 26.4-34.5 52.6-48.1 81.2-8.7 18.4-17.4 36.7-24.6 55.7-4.2 11.1-7.4 22.6-10.2 34.1-1.9 7.9-4.3 15.9-7 23.2-3 8.5-2.2 17.1-4.7 25.5-3.3 11-.8 23.4-3.3 35.4-3.5 16.5 1.7 33.2 3.8 53.4l3.7-19.2c1.6-8.4 5.1-16.4 7-24.6 6.5-27.9 17.1-54.2 29.8-79.7 9-18 22.8-32 36.7-46.2 17-17.5 38-27.7 60.3-36.1 10.7-4 22-6.2 33.1-8.8 11.9-2.9 24.6-3.5 37-3.3 44.5.9 89.1-3.4 135.2 3.3-1.8 6.8-.7 12.5-2.2 18.6-3.4 14.1-9.5 27.9-7.6 42.9 1 8.5-2.7 16.2-4.9 24-4.3 15.1-11.7 28.9-18.5 42.9-10.4 21.3-20 42.9-27.5 65.2-5.2 15.3-10.9 31.1-10.4 47.9.2 6.1-.4 12.3.1 18.4.5 5.8 2.7 11.4 2.8 17.1.4 18.4.1 36.8.1 55.2 0 2 .8 4.6-.2 6-4.4 6.3-3.4 13.9-5.9 20.6-2.5 6.6-3.6 14-7.2 19.9-3.8 6.3-5.3 13.2-8 19.8-4.7 11.8-8.9 24-12.2 36.3-1.6 6-.8 12.3-2.8 18.8-2 6.2-2.4 13.4-3.2 20.1-1.3 10.6-4.5 20.8-6.2 31.2-3.2 20.5-7.3 40.7-12.6 60.8-4.5 17-9.4 33.8-16.7 49.8-5.7 12.5-12 24.7-18.4 36.8-2.9 5.6-2.8 10 1.8 14.7 11.4 11.6 25 11.8 39.6 8.5 7.1-1.6 11.6-3.7 13.2-12.6 1.4-7.9 5.6-15.4 5-23.9 4.7-3.3 2.4-8.2 3.1-12.5.7-4.2 2.1-8.3 3-12.5 1.3-6.1 1-13 3.7-18.4 15.1-29.3 29-59.3 50.6-84.9 7.1-8.5 12.9-18.1 19.3-27.2 11.9-17 13.1-36.9 15.2-56.5 1.8-16.4-.4-32.8 2.5-49.4 2.7-15.9 9.5-30.1 13-45.4 13.6-20.7 19.7-45.7 36.8-64.5 7.6-17.2 19.5-31.8 29.4-47.6l22.7-35.1c1.6-2.5 2.8-5.1 5.1-9.3l6.6 51.8c2 18.5 9.6 35.7 9.8 54.4 5.1 8.8 4.6 19.3 8.6 28.6 3.8 9.1 4.4 19.6 8.1 28.9 8.1 20.8 4.3 41.3.1 62-1.5 7.6-3.7 15.1-4.3 22.7-.7 10.2-.2 20.4-.2 30.6 0 8.8 3.1 17.3 6.7 24.8 10.3 21.6 24.6 40.9 36.4 61.6 7.9 14 15.2 28.5 21.1 43.4 6.3 15.8 7.6 32.9 9.4 49.8.6 5.6.2 11.2 0 16.9-.2 4.3 2.4 6.8 5.8 7.5 11.9 2.4 23.8 4.6 35.8 6.1 10.4 1.3 20-2.9 29.7-6 2.1-.7 5.7 1 5.3-3.2-.2-2.3-.9-4.8-2.2-6.7-3.3-4.8-7.5-9.1-10.7-14-7.5-11.6-14.1-23.4-19.1-36.6-3.2-8.7-4.1-17.6-6.7-26.3-3.7-12.4-6.4-25.5-7-38.4-2.2-42.5 2.4-85-3-127.5-2.1-16.7-.7-33.9 2.3-50.9 1.2-7.3 3.4-12 9.4-15.4l27.4-15.3c10.8-5.8 23.3-8.2 33.4-15.4 5.6-4 12.1-5.9 16.5-12.9 7.9-12.7 14.1-25.6 18.3-40.1 3.1-10.7 8.2-21.5 14.8-30.5 11.5-15.8 27.7-26.7 44.8-35.8 17.9-9.6 36.2-18.6 54.7-27.1 16.7-7.7 32.8-16.8 50.6-22.2 10-3 20-6.2 29.7-9.7 10-3.6 20.6-3.6 30.4-7.9 6.7-2.9 15.2.7 22.6-2.6 8.1 4.1 16.5 1.1 25.8 2.3-3.3-4.6-4.8-8.1-7.3-10.8zM736.7 426.4c-11.6 1.7-23.7 5.4-35.8 8.7-1.1 19.9-5.8 36.8-8.9 60-4.7 36.4-52.6 3.3-51-45.5-12.6.4-45.2-14.1-55.2-25.3-8.4-8.7-19.5-27.7-6.8-30.2 21-4.6 38.4-6.6 56.8-7.5.5-21.1 2.6-42.6 6.8-65 8.9-50.5 81.5 33.1 74.7 47.2-2.6 5.4-5.3 11.2-7.4 17.4 26.8 2.9 64.1 10.3 71 24.8 5.2 11.3-33.7 13.7-44.2 15.4z" />
  <style>
    path {
      fill: #1e1e2e;
    }

    @media (prefers-color-scheme: dark) {
      path {
        fill: #cdd6f4;
      }
    }
  </style>
</svg>