<?xml version="1.0" standalone="no"?>
<!DOCTYPE svg PUBLIC "-//W3C//DTD SVG 20010904//EN"
 "http://www.w3.org/TR/2001/REC-SVG-20010904/DTD/svg10.dtd">
<svg version="1.0" xmlns="http://www.w3.org/2000/svg"
 width="512.000000pt" height="512.000000pt" viewBox="0 0 512.000000 512.000000"
 preserveAspectRatio="xMidYMid meet">
<metadata>
Created by potrace 1.14, written by Peter Selinger 2001-2017
</metadata>
<g transform="translate(0.000000,512.000000) scale(0.100000,-0.100000)"
fill="#000000" stroke="none">
<path d="M2584 4830 c-23 -12 -51 -31 -63 -44 -30 -32 -58 -119 -66 -201 -27
-316 -32 -330 -162 -419 -63 -43 -70 -45 -103 -36 -50 14 -104 12 -168 -6
-109 -31 -148 -62 -212 -169 -58 -98 -129 -182 -297 -353 -276 -280 -407 -456
-531 -713 -28 -57 -62 -133 -76 -167 -27 -68 -87 -270 -92 -312 -2 -14 -7 -45
-12 -70 -7 -39 -8 -253 -1 -302 3 -23 19 -12 19 13 0 20 56 218 84 297 37 104
106 218 178 292 85 87 109 105 200 149 136 65 201 74 508 75 302 0 359 -3 361
-18 3 -26 -3 -65 -17 -113 -8 -29 -15 -76 -16 -105 -1 -65 -25 -141 -81 -256
-66 -136 -137 -316 -153 -387 -6 -29 -5 -110 2 -281 5 -124 4 -162 -10 -218
-15 -58 -54 -169 -86 -241 -11 -25 -29 -86 -34 -111 -4 -20 -17 -106 -21 -139
-2 -11 -12 -67 -24 -125 -11 -58 -22 -116 -25 -130 -20 -117 -72 -274 -130
-389 -51 -100 -51 -106 -10 -138 27 -20 46 -26 82 -26 73 1 99 15 113 65 7 24
13 45 14 48 1 3 5 23 9 45 4 22 12 65 18 95 15 78 116 267 210 396 123 166
135 200 144 409 6 131 7 138 33 220 26 77 127 286 152 314 9 10 25 33 34 52
10 19 41 68 68 109 27 41 67 101 88 133 22 32 39 62 39 68 0 6 4 8 9 5 4 -3
11 -36 15 -73 9 -91 14 -125 31 -208 8 -38 17 -81 19 -95 2 -14 11 -50 20 -80
9 -30 16 -55 16 -55 -1 0 1 -7 3 -15 53 -173 55 -210 27 -350 -12 -61 -18
-124 -15 -176 3 -91 21 -134 113 -280 63 -102 137 -247 151 -299 12 -48 23
-123 26 -190 2 -27 3 -53 4 -56 1 -4 18 -10 39 -14 20 -4 51 -10 67 -13 67
-13 195 6 195 29 0 5 -22 41 -48 81 -65 98 -89 161 -122 320 -10 50 -20 362
-22 675 -1 147 14 163 238 266 104 48 126 75 176 211 16 43 34 88 40 100 26
49 77 100 140 142 145 96 534 266 660 288 15 2 33 8 40 12 7 5 54 7 105 6 52
-1 93 3 93 8 0 9 -42 61 -90 110 -50 51 -136 147 -195 215 -33 38 -166 180
-296 315 -130 135 -253 265 -274 290 -20 25 -42 50 -48 55 -7 6 -59 66 -116
135 -113 136 -193 253 -248 364 -52 105 -83 149 -128 183 -68 51 -103 64 -176
67 -53 2 -74 7 -92 23 -12 11 -32 24 -45 28 -36 11 -45 39 -36 124 4 42 9 114
10 161 2 47 3 90 3 95 1 6 -1 39 -4 74 -10 127 -37 179 -109 212 -53 24 -91
24 -142 -1z m94 -958 c52 -42 85 -79 121 -136 29 -47 30 -50 16 -84 -18 -42
-19 -59 -2 -59 80 -2 208 -41 244 -75 l24 -23 -20 -16 c-18 -15 -57 -24 -150
-35 -51 -6 -151 -38 -152 -48 0 -6 -2 -18 -3 -26 -2 -8 -6 -35 -9 -60 -4 -25
-9 -56 -12 -70 -3 -14 -7 -38 -9 -55 -7 -48 -17 -65 -42 -71 -63 -16 -148 96
-156 203 -2 27 -7 32 -33 37 -44 9 -147 59 -176 87 -56 54 -76 113 -41 123 40
11 130 26 174 28 27 2 48 5 49 8 0 3 2 14 4 25 2 11 6 52 9 91 16 203 57 241
164 156z"/>
</g>
</svg>
