<svg xmlns="http://www.w3.org/2000/svg" viewBox="0 0 200 200" width="100%">
  <path fill-rule="evenodd" fill="currentColor"
    d="M100 12c-49.7 0-90 40.3-90 90 0 39.8 25.8 73.5 61.6 85.4 4.5.8 6.1-2 6.1-4.3l-.1-15.3c-25 5.4-30.3-12.1-30.3-12.1-4.1-10.4-10-13.2-10-13.2-8.2-5.6.6-5.5.6-5.5 9 .6 13.8 9.3 13.8 9.3 8 13.8 21.1 9.8 26.2 7.5.8-5.8 3.1-9.8 5.7-12-20-2.3-41-10-41-44.5 0-9.8 3.5-17.9 9.3-24.2-.9-2.3-4-11.4.9-23.8 0 0 7.6-2.4 24.7 9.2 7.2-2 14.9-3 22.5-3s15.3 1 22.5 3c17.2-11.6 24.7-9.2 24.7-9.2 4.9 12.4 1.8 21.5.9 23.8 5.8 6.3 9.3 14.3 9.3 24.2 0 34.6-21 42.2-41.1 44.4 3.2 2.8 6.1 8.3 6.1 16.7l-.1 24.7c0 2.4 1.6 5.2 6.2 4.3 35.7-11.9 61.5-45.6 61.5-85.4 0-49.7-40.3-90-90-90z" />
</svg>