<svg xmlns="http://www.w3.org/2000/svg" baseProfile="tiny" viewBox="0 0 4608 1505.1" overflow="visible" xmlns:v="https://vecta.io/nano" width="100%" fill="currentColor"><path fill="none" stroke="currentColor" stroke-width="12" stroke-linejoin="round" stroke-miterlimit="10" d="M1826.5 789.3l-44.4-47.6c-2.1-2.2-5.2-4-6.3-6.6-3.4-8.3-11-12.8-16.4-19.3-5.4-6.4-10.6-13.1-16.3-19.3-22.4-24.1-47.3-45.8-68.5-71.2-18.5-22.1-41.7-39.8-59.4-62.8-6.4-8.3-14-15.5-20.9-23.4-11.5-13.1-22.3-26.6-33.2-40.1-7.6-9.6-15.9-18.8-22.4-29.1-12.2-19.3-24.9-38.4-33.8-59.5-4.1-9.9-10.8-18-16.6-26.8-2.5-3.8-7.9-5.6-11.4-8.9-12.8-12-27.6-18.1-45.4-16.4-8.1.7-15.8.7-21.7-7.2-2.2-3-7.3-4.1-11.3-5.6-8.2-3-10.3-8.4-10.4-17.1-.3-17.1 5-33.6 3.7-50.9-.7-8.6-3-18 2.7-26.4.7-1 .8-3.7 0-4.4-5.5-5.1-2.2-11.5-2.9-17.3-.8-7.3-1-14.4-2.7-21.8-6-26.6-22.4-34.6-43.3-36.4-11-1-19 6.4-27.5 11.1-8.7 4.8-11.8 14.9-15.6 23.9-7.7 18-6.1 37.4-8.4 56.1l-4.3 36.9c-1.7 12.8-6.8 25.4-18.5 33.6l-10.7 7.6c-7.1 4.9-13.9 10.7-21.6 14.5-5.9 2.9-12.4-1.4-18.5-2.8-.5-.1-1 0-1.5 0-11.6-1.6-23 .7-33.9 3.5-6.7 1.8-14 3.5-20 7.1-13.2 7.9-24.1 18.6-31.2 32.6-14.3 28.6-37.7 50.1-58 73.9-2.8 3.3-5.7 7-9.3 9.8-3.8 3-8.3 5.3-11.6 8.8-6.2 6.4-11.5 13.7-17.5 20.3-12.3 13.3-26.2 25-37 39.8-8.9 12.4-20.6 22.9-28.8 35.7-17 26.4-34.5 52.6-48.1 81.2-8.7 18.4-17.4 36.7-24.6 55.7-4.2 11.1-7.4 22.6-10.2 34.1-1.9 7.9-4.3 15.9-7 23.2-3 8.5-2.2 17.1-4.7 25.5-3.3 11-.8 23.4-3.3 35.4-3.5 16.5 1.7 33.2 3.8 53.4l3.7-19.2c1.6-8.4 5.1-16.4 7-24.6 6.5-27.9 17.1-54.2 29.8-79.7 9-18 22.8-32 36.7-46.2 17-17.5 38-27.7 60.3-36.1 10.7-4 22-6.2 33.1-8.8 11.9-2.9 24.6-3.5 37-3.3 44.5.9 89.1-3.4 135.2 3.3-1.8 6.8-.7 12.5-2.2 18.6-3.4 14.1-9.5 27.9-7.6 42.9 1 8.5-2.7 16.2-4.9 24-4.3 15.1-11.7 28.9-18.5 42.9-10.4 21.3-20 42.9-27.5 65.2-5.2 15.3-10.9 31.1-10.4 47.9.2 6.1-.4 12.3.1 18.4.5 5.8 2.7 11.4 2.8 17.1.4 18.4.1 36.8.1 55.2 0 2 .8 4.6-.2 6-4.4 6.3-3.4 13.9-5.9 20.6-2.5 6.6-3.6 14-7.2 19.9-3.8 6.3-5.3 13.2-8 19.8-4.7 11.8-8.9 24-12.2 36.3-1.6 6-.8 12.3-2.8 18.8-2 6.2-2.4 13.4-3.2 20.1-1.3 10.6-4.5 20.8-6.2 31.2-3.2 20.5-7.3 40.7-12.6 60.8-4.5 17-9.4 33.8-16.7 49.8-5.7 12.5-12 24.7-18.4 36.8-2.9 5.6-2.8 10 1.8 14.7 11.4 11.6 25 11.8 39.6 8.5 7.1-1.6 11.6-3.7 13.2-12.6 1.4-7.9 5.6-15.4 5-23.9 4.7-3.3 2.4-8.2 3.1-12.5.7-4.2 2.1-8.3 3-12.5 1.3-6.1 1-13 3.7-18.4 15.1-29.3 29-59.3 50.6-84.9 7.1-8.5 12.9-18.1 19.3-27.2 11.9-17 13.1-36.9 15.2-56.5 1.8-16.4-.4-32.8 2.5-49.4 2.7-15.9 9.5-30.1 13-45.4 13.6-20.7 19.7-45.7 36.8-64.5 7.6-17.2 19.5-31.8 29.4-47.6l22.7-35.1c1.6-2.5 2.8-5.1 5.1-9.3l6.6 51.8c2 18.5 9.6 35.7 9.8 54.4 5.1 8.8 4.6 19.3 8.6 28.6 3.8 9.1 4.4 19.6 8.1 28.9 8.1 20.8 4.3 41.3.1 62-1.5 7.6-3.7 15.1-4.3 22.7-.7 10.2-.2 20.4-.2 30.6 0 8.8 3.1 17.3 6.7 24.8 10.3 21.6 24.6 40.9 36.4 61.6 7.9 14 15.2 28.5 21.1 43.4 6.3 15.8 7.6 32.9 9.4 49.8.6 5.6.2 11.2 0 16.9-.2 4.3 2.4 6.8 5.8 7.5 11.9 2.4 23.8 4.6 35.8 6.1 10.4 1.3 20-2.9 29.7-6 2.1-.7 5.7 1 5.3-3.2-.2-2.3-.9-4.8-2.2-6.7-3.3-4.8-7.5-9.1-10.7-14-7.5-11.6-14.1-23.4-19.1-36.6-3.2-8.7-4.1-17.6-6.7-26.3-3.7-12.4-6.4-25.5-7-38.4-2.2-42.5 2.4-85-3-127.5-2.1-16.7-.7-33.9 2.3-50.9 1.2-7.3 3.4-12 9.4-15.4l27.4-15.3c10.8-5.8 23.3-8.2 33.4-15.4 5.6-4 12.1-5.9 16.5-12.9 7.9-12.7 14.1-25.6 18.3-40.1 3.1-10.7 8.2-21.5 14.8-30.5 11.5-15.8 27.7-26.7 44.8-35.8 17.9-9.6 36.2-18.6 54.7-27.1 16.7-7.7 32.8-16.8 50.6-22.2 10-3 20-6.2 29.7-9.7 10-3.6 20.6-3.6 30.4-7.9 6.7-2.9 15.2.7 22.6-2.6 8.1 4.1 16.5 1.1 25.8 2.3-3.3-4.5-4.8-8.1-7.3-10.8z"/><path d="M1554.2 573.7c-9.6-.1-17.9 7.9-18 17.6-.1 9.6 7.9 17.9 17.6 18 9.6.1 17.9-7.9 18-17.6.2-9.5-7.9-17.8-17.6-18zm-239.2 77c.1-10-8.5-18.9-18.7-19.1-10-.2-18.9 8.4-19.2 18.6-.3 10.1 8.7 19.3 18.9 19.4 10-.1 18.8-8.8 19-18.9zm273.4 41.2c.1-11-8.1-19.5-18.8-19.7-11.2-.2-19.8 8-19.9 19.1-.1 11 8.1 19.5 18.8 19.7 11.2.1 19.8-8.1 19.9-19.1zm-13.2 42.7c0-11.1-9.2-20.3-20.3-20.3-10.9 0-20 9-20.2 19.9-.2 11.1 9 20.5 20.1 20.5 11.1.2 20.4-9 20.4-20.1zm-34.4 64c11.2.1 21.1-9.7 21.2-21 0-11.3-9.8-21.1-21.1-21-11.2.1-20.7 9.5-20.9 20.7-.3 11.2 9.5 21.1 20.8 21.3zM1425.1 497c13.2 4 24 9.3 27.6 16.4 1-2 1.5-4.2 1.5-6.5.1-8.8-7.2-16.3-16-16.4-5.3-.2-10.1 2.4-13.1 6.5zm39.6 23.1c-.2 9.3 6.8 16.6 16 16.7 9.3.1 16.6-6.9 16.6-16.1.1-9.3-7-16.5-16.2-16.5-9.1 0-16.2 7-16.4 15.9zm47.4 220.6c10.7-.1 20.1-9.5 20-20.2s-9.5-20.1-20.2-20-20.1 9.5-20 20.2c0 10.7 9.5 20 20.2 20zm-60-292.4c-8.4 0-15.3 6.8-15.3 15.2s6.8 15.3 15.2 15.3 15.3-6.8 15.3-15.2c0-8.3-6.9-15.3-15.2-15.3zm-43.2-13.8c-8 0-15 7.1-15 15.1s7.1 15 15.1 15 15-7.1 15-15.1-7.1-15-15.1-15zm85.9 27.7c-8.6.1-15.1 6.6-15.2 15.1-.1 8.9 6.5 15.5 15.3 15.6 8.8 0 15.5-6.6 15.5-15.4-.1-8.8-6.7-15.4-15.6-15.3zm-97.1 337.4c11.2.3 21.2-9.4 21.4-20.8.2-11.2-9.6-21.2-20.9-21.2-11.1-.1-20.7 9.3-21.1 20.6-.5 11 9.2 21.1 20.6 21.4zm-29.6-57.9c10.8-.1 20.1-9.6 20-20.3-.1-10.8-9.6-20.1-20.3-20-10.8.1-20.1 9.6-20 20.3.2 10.8 9.6 20.1 20.3 20zm-9.9-77c.1-10.2-8.8-19.2-19-19.3s-19.2 8.8-19.3 19 8.8 19.2 19 19.3 19.2-8.8 19.3-19zm-33.2 62.8c10.6 0 19.8-9.1 19.9-19.8.1-10.6-8.9-19.8-19.6-20s-20.3 9.2-20.2 20c.1 10.6 9.2 19.7 19.9 19.8zm150.3 22.1c0-11.4-8.8-20.3-20.2-20.4-11.5 0-20.4 8.7-20.5 20-.1 11.7 8.8 20.6 20.4 20.6 11.5.1 20.3-8.8 20.3-20.2zm26.9-85.9c.1-10.2-8.7-19.2-19-19.3-10.2-.1-19.2 8.7-19.3 19-.1 10.2 8.7 19.2 19 19.3 10.2.1 19.2-8.7 19.3-19zm-13.4 43.1c.2-10.7-8.6-19.7-19.5-20s-20.1 8.9-20.1 19.8c0 10.8 8.9 19.7 19.7 19.7 10.8.1 19.7-8.7 19.9-19.5zm-47.9 107c11.4.1 21.1-9.4 21.3-20.8.2-11.6-9.5-21.5-21.1-21.6-11.4-.1-21.1 9.4-21.3 20.8-.2 11.6 9.5 21.5 21.1 21.6zm-8.6-78.2c0-11.1-9.2-20.3-20.3-20.3-10.9 0-20 9-20.2 20-.1 11.2 9 20.5 20.1 20.5 11.1.1 20.3-9.1 20.4-20.2zm92-217.7c-9.2-.2-17 7.4-17 16.6 0 9.1 7.3 16.6 16.4 16.8 9.2.2 17-7.4 17-16.6 0-9.1-7.3-16.6-16.4-16.8zm-388.5-9.2c.1 8.8 7.6 16.2 16.3 16.1 8.8-.1 16.2-7.5 16.1-16.3s-7.6-16.2-16.3-16.1c-8.8 0-16.2 7.5-16.1 16.3zm30.3-58.4c-8.4-.1-15.3 6.7-15.4 15.1s6.7 15.3 15.1 15.4 15.3-6.7 15.4-15.1-6.7-15.3-15.1-15.4zm55.1 86.1c-.1 9.1 7.5 16.9 16.7 17 9.2 0 16.9-7.7 16.8-16.8 0-9.2-7.8-16.8-17-16.7-8.9 0-16.3 7.5-16.5 16.5zm-12.4-72.3c-8.8.1-15.3 6.7-15.2 15.6.1 8.8 6.7 15.3 15.6 15.2 8.8-.1 15.3-6.7 15.2-15.6-.1-8.8-6.7-15.2-15.6-15.2zm-30.1 58.2c-.1 9.4 6.9 16.5 16.2 16.6 9.2 0 16.3-6.8 16.4-15.8.2-9.4-6.7-16.7-16-16.8-9.4-.2-16.5 6.7-16.6 16zm31.3 155.8c7-8.9 6.5-19-.7-26-6.9-6.9-17.9-7.4-25.4-1.2s-9.1 16.6-3.5 25.1l29.6 2.1zm-89.1-126.6c-.1 9.2 8 17.2 17.2 17.2s17.2-8.2 17.1-17.3c-.1-9.2-8.3-17.2-17.4-17-9.2.2-16.9 8.1-16.9 17.1zm85 277.4c9.5-4.4 14.5-15.1 11.7-24.9-2.8-9.9-11.6-16.2-21.6-15.3l-16.4 32.7c6.4 9.1 16.9 11.9 26.3 7.5zm-20.7-220.3c0-9.8-8.4-18.2-18.2-18.2s-18.2 8.4-18.2 18.2 8.4 18.2 18.2 18.2c9.8-.1 18.2-8.4 18.2-18.2zm138.5-230c0 7.4 6 13.2 13.4 13.2s13.2-6 13.2-13.4-6-13.2-13.4-13.2c-7.3.1-13.2 6.1-13.2 13.4zM1236 493.7c.1 6.4 4.3 12.2 10.1 14.6-1.8-5.7-1.1-10.5 4.9-11.6a335.99 335.99 0 0 1 17-3.3c-.1-8.5-7.7-15.9-16.1-15.8-8.6.1-16 7.6-15.9 16.1zm115.5-170.3c-6.6-.3-12.6 5.2-12.8 11.9-.2 6.5 5.2 12.2 11.7 12.5 6.6.3 12.6-5.2 12.8-11.9.2-6.5-5.2-12.2-11.7-12.5zm28.5 55.7c-7.7 0-13.6 5.9-13.5 13.6 0 7.5 5.8 13.3 13.2 13.4 7.7.1 13.7-5.7 13.8-13.3 0-7.8-5.8-13.7-13.5-13.7zm385.1 341.8l-24.7-29.2c-7 8.5-6.7 19 0 26.3 6.6 7.1 16.9 8.4 24.7 2.9zm-407.4-297.4c7.2 6.4 14.1 14 19.6 21.3 2-2.5 3.2-5.7 3.2-9.4 0-8.2-6.3-14.5-14.6-14.4-3.1.1-5.9 1-8.2 2.5zm-64 41c0 8.1 6.4 14.8 14.3 15.3.5-10 1.3-20.1 2.6-30.4-.5-.1-1-.1-1.6-.1-8.3 0-15.2 6.8-15.3 15.2zm-27.7-29c-7.9 0-15 7-15.1 15-.1 8.1 7.3 15.4 15.3 15.2s14.9-7.3 14.8-15.2c0-8-7.1-15-15-15zm42.7-13.8c0 4 1.8 7.6 4.5 10.1.4-2.5.9-5.1 1.4-7.7 1.9-11 6.9-15.6 13.4-16-1.6-.6-3.3-.9-5.1-.9-7.9.2-14.2 6.7-14.2 14.5zm73.2 67.1c9 1 19.2 2.5 29.1 4.6v-.7c.1-8.5-7.3-16-15.9-16.1-3.7 0-7.1 1.3-9.9 3.6-1.2 2.8-2.3 5.6-3.3 8.6zM1153 670.5c10.3 0 19.3-9.1 19-19.3s-9.2-18.8-19.2-18.6c-10.1.2-18.8 9-18.7 19 0 10.2 8.8 18.9 18.9 18.9zm-104.3-46.4c-.2 10.3 7.8 18.6 18 18.7 10.3.1 18.5-7.9 18.6-18.1.1-10.3-8-18.5-18.2-18.5-10.1.1-18.2 7.9-18.4 17.9zm161.3 16.8c10.3 0 18.4-8.1 18.3-18.4 0-10.2-8.2-18.3-18.5-18.2-10.2.1-18.2 8.3-18.1 18.6.1 10 8.2 17.9 18.3 18zm510.7 106.2c-.1 11.7 8.7 20.7 20.2 20.8 11.4 0 20.3-8.8 20.4-20.1.1-11.4-8.7-20.4-20-20.5-11.4-.1-20.5 8.5-20.6 19.8zm-8.9-37.2c11.1.1 19.6-8.3 19.5-19.4 0-10.8-8.5-19.3-19.3-19.3-11.1 0-19.5 8.4-19.5 19.5.2 10.9 8.5 19.2 19.3 19.2zm-153.4-75.4c0-10.4-7.9-18.3-18.3-18.3s-18.4 7.8-18.5 18.2c-.1 10.7 7.9 18.7 18.6 18.6 10.4-.1 18.2-8.1 18.2-18.5zM1181 548.3c-9.4 0-17.2 7.6-17.3 17-.1 9.6 7.6 17.5 17.3 17.5 9.4 0 17.2-7.6 17.3-17 .1-9.6-7.7-17.5-17.3-17.5zm286.3-2c-9.5-.2-17.4 7.4-17.6 16.8-.2 9.7 7.5 17.7 17.2 17.7 9.4 0 17.2-7.6 17.4-17 .1-9.5-7.5-17.3-17-17.5zm11.4 74.3c0 10.2 8.3 18.4 18.5 18.3 10-.1 18-8.3 18-18.3 0-10.2-8.3-18.4-18.5-18.3-9.9.1-18 8.3-18 18.3zm47.4 37.7c-10.7-.1-19.4 8.6-19.4 19.3 0 10.5 8.5 19.1 18.9 19.3 10.7.2 19.5-8.4 19.6-19 .2-10.8-8.4-19.5-19.1-19.6zm-14.9-98.1c-9.9-.1-17.5 7.3-17.5 17.2-.1 9.9 7.3 17.5 17.2 17.5 9.9.1 17.5-7.3 17.5-17.2s-7.3-17.4-17.2-17.5zm133.9 102.3c-.1-10.2-9-19.1-19.2-19s-19.1 9-19 19.2 9 19.1 19.2 19 19.1-9 19-19.2zm-80.9-13.7c.2 10.3 8.9 18.8 19 18.6 10.3-.2 18.8-8.9 18.6-19-.2-10.3-8.9-18.8-19-18.6-10.3.1-18.8 8.8-18.6 19zM1081.1 598c9.9 0 17.3-7.5 17.3-17.3 0-9.9-7.4-17.4-17.2-17.5-9.9-.1-17.5 7.3-17.6 17.1-.1 10.1 7.3 17.7 17.5 17.7zm530.9 87.8c-10.9 0-20.1 9.2-19.8 20.1.3 10.8 9.3 19.6 20 19.5 10.8-.2 19.6-9.1 19.6-19.9-.1-10.8-9-19.7-19.8-19.7zm-381 75c-2.4-8.6-9.9-14.3-20.1-14.7l-5.3 18.4c-2 6.2-4.5 12.3-6.7 18.3 7.3 5.7 16.6 6 24 .9 7.2-5.1 10.5-14.3 8.1-22.9zm365.8-173.4c-9.8.2-18.2 8.8-17.9 18.5.2 9.6 8.6 17.8 18.1 17.8 9.7 0 18.2-8.5 18.2-18.2-.1-9.8-8.7-18.2-18.4-18.1zm-468.3 51.1c0-10.4-7.9-18.4-18.3-18.5-10.6-.1-18.7 8-18.7 18.5 0 10.4 7.9 18.4 18.3 18.5 10.6.2 18.7-7.9 18.7-18.5zm-15 38.2c-1.2-8.2-8.6-14.1-16.9-14.4-8.4-.3-16.3 5.4-17.8 13 11.4 2 22.8 1.8 34.7 1.4zm178.3-69c.1 9.8 8.6 18.1 18.3 18 9.8-.1 18.1-8.6 18-18.3-.1-9.8-8.6-18.1-18.3-18s-18 8.6-18 18.3zM1142 594.4c-.2-9.6-8.5-17.8-18-17.8-9.5.1-17.8 8.4-17.9 17.9 0 9.5 8.2 17.9 17.8 18 9.6.2 18.2-8.5 18.1-18.1zm272.4 41.2c0-10.4-7.9-18.4-18.3-18.4-10.7 0-18.6 8-18.5 18.6.1 10.4 8.1 18.2 18.5 18.1 10.4 0 18.3-7.9 18.3-18.3zm-179.8.9c0 10.4 7.8 18.4 18.2 18.4 10.7.1 18.6-7.9 18.6-18.6-.1-10.4-8-18.2-18.5-18.2-10.4.1-18.3 8-18.3 18.4zm32.6-25c9.6-.1 17.9-8.6 17.7-18.1-.1-9.6-8.6-17.9-18.1-17.7-9.6.1-17.9 8.6-17.7 18.1.1 9.5 8.6 17.8 18.1 17.7zm-3.3-61c0 9.2 8 17.2 17.2 17.2 9.2-.1 17.2-8.2 17.1-17.3 0-.4 0-.8-.1-1.2-8.7-2.8-18.8-7.4-27.1-12.3-4.2 3.2-7.1 8.2-7.1 13.6zm-25.1 109.8c-10.5.1-19 8.6-19.1 19.1a19.12 19.12 0 0 0 19.2 19.4c10.8 0 19.4-8.6 19.3-19.4 0-10.7-8.6-19.2-19.4-19.1zm15.1 141.3c11.2.1 21.1-9.7 21.2-21 .1-11.2-9.7-21.1-21-21.2-11.2-.1-21.1 9.7-21.2 21 0 11.3 9.7 21.2 21 21.2zm58.1-249.5c-3.2 3.1-5.2 7.4-5.3 12.2-.1 7.4 4.5 13.8 11.1 16.3-3.2-8.4-5.1-18.1-4.8-28.5-.3.1-.6.1-1 0zm-23.7 184.4c0-11.2-9.3-20.3-20.4-20.2-10.9.1-20 9.1-20.1 20.1-.1 11.2 9 20.4 20.2 20.4 11.1.1 20.3-9.1 20.3-20.3zm-64.2-174.3c-9.9-.1-17.4 7.3-17.5 17.1-.1 10.1 7.4 17.7 17.5 17.7 9.8 0 17.3-7.5 17.3-17.4s-7.4-17.4-17.3-17.4zm-13 161.9c.1 5.3-4.8 11.4 2.3 15.9 6.8 4.2 13.6 5.1 20.8 1.4 7.1-3.7 10.4-10 10.9-17-.1-11.4-9.1-20.6-19.7-20.9-6.3-.1-10.9 1.9-11.9 9.1-.4 3.8-2.5 7.7-2.4 11.5zm223.7-117.4c.1 9.8 8.5 18.1 18.3 18.1 9.8-.1 18.1-8.5 18.1-18.3-.1-9.8-8.5-18.1-18.3-18.1-9.7.1-18.1 8.5-18.1 18.3zm-27.9-57.3c-.1 9.2 8 17.3 17.2 17.2 9-.1 16.9-7.9 17-16.9.1-9.2-8-17.3-17.2-17.2-9.1.1-16.9 7.9-17 16.9zm-42.6 46.3c.8.1 1.7.2 2.6.2 10.1.1 17.6-7.4 17.6-17.6-.1-8.7-6-15.5-14.3-16.9-1.9 10.7-4.1 21.6-5.9 34.3zm45.5-21c-9.6.2-17.9 8.6-17.7 18.1.2 9.6 8.6 17.9 18.1 17.7 9.6-.2 17.9-8.6 17.7-18.1-.2-9.6-8.6-17.9-18.1-17.7zm10.3 74.5c-.3 10.2 8.7 19.3 18.9 19.2 10.1 0 18.8-8.7 18.9-18.8.1-10-8.6-18.8-18.7-19-10-.1-18.8 8.5-19.1 18.6zm-47.2-111.5c-.2 4-.6 8-1.1 11.8 2.5 1.7 5.6 2.7 8.8 2.8 9.2.2 17-7.4 17-16.7 0-1.5-.2-3-.6-4.4-7.8 1.8-16 4.2-24.1 6.5zm-71.5 156.2c.1-11.2-8.2-19.7-19.3-19.8-10.9 0-19.4 8.2-19.5 19-.1 11.2 8.2 19.7 19.3 19.8 10.9.1 19.4-8.1 19.5-19zm124.8 18c10.9-.1 19.2-8.4 19.2-19.3 0-11.1-8.4-19.5-19.5-19.4-10.9.1-19.2 8.4-19.2 19.3-.1 11.1 8.3 19.5 19.5 19.4zm-43.8-52.6c-10.8-.2-19.6 8.3-19.7 19-.1 10.8 8.4 19.5 19.1 19.6a19.12 19.12 0 0 0 19.4-19.2 19.1 19.1 0 0 0-18.8-19.4zm-42.9-50c-2.9 3.2-4.7 7.5-4.7 12.3 0 10.2 8.2 18.3 18.4 18.3s18.3-8.3 18.2-18.5c-.1-6.8-3.9-12.7-9.4-15.7-4.4 9-13.4 9.4-22.5 3.6zm287.7 217.5c11.7-.1 21.2-9.7 21.1-21.4s-9.7-21.2-21.4-21.1-21.2 9.7-21.1 21.4c0 11.8 9.6 21.2 21.4 21.1zm-626.8-257c6.7-2.4 10.7-7.3 11.6-14.3.7-5.5-1-10.3-5.8-14.4-6.6 9.3-13.5 17.6-21.1 26 5.1 3.9 10 4.6 15.3 2.7zm-10.9 42.5c8.1-4.4 11.6-14.2 8-22.7-3.7-8.7-12.6-12.6-22.7-9.6-2.9 4.3-5.6 8.7-8.7 12.7-3.7 4.8-2.8 9.2.2 13.7 5 7.8 15.1 10.3 23.2 5.9zm-22.6 45.8c10.6 0 18.7-8.1 18.6-18.6-.1-10.3-8-18.3-18.4-18.3-10.6 0-18.7 8.1-18.6 18.6.1 10.2 8 18.2 18.4 18.3zm71.3-73.3c9.5-.1 17.1-7.8 17.1-17.2 0-9.7-7.8-17.4-17.5-17.3-9.5.1-17.1 7.8-17.1 17.2 0 9.7 7.8 17.4 17.5 17.3zm-14 7.6c-9.8-.1-18.2 8-18.4 17.9s8.3 18.6 18.2 18.5c9.8 0 18.1-8.3 18.2-18.1s-8.2-18.2-18-18.3zm27.5-52.5c9.4.1 16.5-6.8 16.6-16 .1-9.4-6.8-16.5-16-16.6-9.4-.1-16.5 6.8-16.6 16-.2 9.3 6.7 16.5 16 16.6zM901.5 760.7c2.7-8.6-.5-17.9-8.4-22.5l-9.5 35.9c7.9.7 15.3-5.1 17.9-13.4zM888.9 801c1.4-7.5-1.2-13.9-7.9-20.2l-6.2 36.8c8.4-3.4 12.7-8.9 14.1-16.6zm26-83.2c2.5-7.7.2-16-6-20.2-4.9 10.9-9.9 21.6-13.2 33.2 9 .5 16.5-4.8 19.2-13zm11.5-57.4c-4.8 8.5-8.7 17-12.3 25.9 11.7-.8 18.9-15.7 12.3-25.9zm196.4-193.7c8.1.1 15.4-7.2 15.3-15.3-.1-8-7.2-15-15.2-14.9s-15 7.1-15 15c0 8 6.9 15 14.9 15.2zm41-102.3c-6.7 3.6-12.2 7.4-16.4 13.6 9.7 2.1 16.9-3.8 16.4-13.6zm16.1 72.4c7.9 0 14.3-6.3 14.3-14.2s-6.3-14.3-14.2-14.3c-8 0-14.3 6.3-14.3 14.2 0 8 6.3 14.3 14.2 14.3zm14.3-44c7.4-.1 13.2-6.1 13.1-13.4-.1-7.4-6.1-13.2-13.4-13.1-7.4.1-13.2 6.1-13.1 13.4 0 7.4 6 13.2 13.4 13.1zm-125.3 103.1c6.5-1.3 10.7-5.2 12.3-11.6 1.4-5.7.1-10.8-5.2-15.6-5 10-15.4 13.6-22.4 21.4 4.3 5.1 9.3 7 15.3 5.8zm154.2-44.8c8.2 0 14.5-6.4 14.4-14.6 0-8.2-6.4-14.5-14.6-14.4-8.2 0-14.5 6.4-14.4 14.6 0 8.2 6.4 14.4 14.6 14.4zm-128 103.2c9.2-.1 16.8-7.8 16.7-17-.1-9-7.6-16.4-16.6-16.6-9.1-.1-16.9 7.5-16.9 16.7-.1 9.3 7.6 17 16.8 16.9zm14.2-43.7c8.5-.2 15.9-7.8 15.7-16.2-.1-8.5-7.6-15.9-16.1-15.9s-15.9 7.5-16 16c0 8.6 7.8 16.3 16.4 16.1zM875.2 851.2c-1.5 8 2.5 17.1 8.3 19.2 4.6-11.8 7.4-24.2 10.7-36.8-9.1-.3-17 7.3-19 17.6zm266.4-429.4c6.8-2.4 10.7-9.6 9-16.3-1.9-7.5-8.2-11.7-16-10.4l-10.7 18.2c3.9 7.9 10.5 11 17.7 8.5zm151.9 461.3c-4.1 6.9-4.1 15.8.3 20.9l19.9-30.8c-7.7-1.8-15.8 2.5-20.2 9.9zM1646 843c-7.4 3.8-12.1 11.4-11.2 19.5l33.9-17c-6.3-5.6-14.8-6.4-22.7-2.5zm23.7-44.8c-11.9.1-21 9.4-21 21.3 0 12.2 9.3 21.4 21.5 21.4s21.3-9.3 21.3-21.6c-.2-12.1-9.6-21.2-21.8-21.1zm33.3 16.3c-7.6 3.9-12.1 12-10.6 19.4l35.8-14.9c-6.4-7.3-16.6-9-25.2-4.5zm-88.3 12.1c-11.6-1.3-23 8.4-23.7 20.7-.6 10.5 5.3 17.5 14 22.3h-.1c1.2.2 2.3.3 3.5.5 13.1 2.4 24.3-5.6 26.4-18.8 2-11.8-7.4-23.3-20.1-24.7zm193.4-57.8c-3.3 5.9-2.2 14.1 2.9 20.2 5.1 6.2 13.6 8.9 20.8 6.4-2.6-5.1-19.9-24.4-23.7-26.6zm-229.7 113.1c.4-13.1-4.2-22.1-16-25.7-11.4-3.5-20 1.3-26.6 10.9-2.5-16.7-8.3-24.1-19.9-25.7-9.2-1.3-18.9 4-22.9 12.7-2.6 5.5-2.9 11.2-.8 17 2 5.6 6.1 9.5 11.7 13-11.1-1.5-18.9 2.6-25.3 11.6 0-12-4.9-20.1-15.5-23.5-11.5-3.7-20.7.7-27.8 11.3.7-11.6-3.2-20-13-24.3-12.3-5.3-22.1-.9-29.8 10.2-.6-15-6.9-23.5-18.5-25.8-9.2-1.9-19.4 3.2-23.7 12-2.7 5.5-3.2 11.1-1.2 17s6.1 10 11.9 13.5c-11.1-1.5-18.9 2.6-25.2 11.5.1-8.9-1.8-15.9-9.8-21.1l3.9 31.5 3.2-.9c.3 8.3 3.3 15.2 10.6 20.7-3.8.7-6.8-.1-9.5 2.6 5.2 14.1 3.2 30.2 10.6 44.2 6.5-.2 11.2-3.8 16.3-8.6.7 7 3.7 12.4 8.1 17.7-6.8 1-11.8 3.7-16.3 8-1.9-5.3-2.8-10.4-7.3-13.4-1 1.4-.5 2.4-.2 3.6 2.1 8.1 5.6 15.8 7.2 24.1 2.5 13.1 8.8 25.3 8.3 39.1-.6 14.3-3.3 28.2-6.5 42-2.3 9.9-3.3 19.7-2.1 29.7 3.9.4 5.6-3.5 9.4-3.6.5 5.1 3.9 8.9 6.4 13.4-5.3 1.4-9.3 3.7-13.3 6.6-.8-.8-1.5-1.6-2.5-2.6-1.6 9.8 1.6 18.2 5.3 26.3 10.9 24.4 27.3 45.7 40.2 69 15 27.1 26.1 55.1 27.4 86.6.2 6.1-.1 12.3-.1 18.4 4.1.4 5.8-3.4 8.3-3.6 9.7 20.7 27 16.1 43.2 14.9 1.6-.3 1.7 1.9 3.8 1.8l23-7c1-10.3-7.1-15.5-12.2-22.6l-7.2 3.9c-1-5.4-4-9.4-6.4-13.4 2.2-1.6 4.6-1.2 5.9-3.8-8.7-13.6-14.1-28.9-17.1-44.7-4.9-.1-7.3 3.8-11.4 4.8-1.1-5-3.9-9.1-6.6-13.4 5.1-1.9 9.7-3.3 13.2-7.6-7.8-40.1-2.2-81-4.5-121.8-1-.2-2.2-.5-3.4-.7-.8-4.9-3.9-8.6-6.1-12.8 3-1.7 6.4-1.8 8.7-4.6 0-1.1.4-2.4.1-3.7-3.4-19.2-3.2-38.4.1-57.6 1.1-6.3 1.2-13.6 7.2-17.3 11.1-6.9 22.4-13.7 34.2-19.1 12.8-5.8 25.8-10.9 37.7-18.5 16-10.1 18.8-26.6 6.1-39-.1-.1 0-.6.1-1 11.5-1 20.6-6.8 23.2-17.8 2.4-10.2-2.1-19.4-12.3-26.2 10.9.6 18.2-3.8 23.9-12.6.2 5.6-.5 10.1 2.9 14.2 9.3-11.4 20.9-19.5 33.7-27.6l-8.2-4.3h.1c-11.1-1.9-20 1.3-26.7 12.1zm-102.6 23c.6 9.8 4.2 16.9 13.2 22.4-10.3-.7-17.3 2.4-23.5 9.8-.8-9.1-4.3-15.6-12-21 9.6.3 16.5-3.2 22.3-11.2zm-42.2-15.7c0 5.5-.1 9.7 1.8 13.7 1.8 3.9 4.7 6.8 8.5 10.1-8.9.3-15.9 3.4-21.5 10.6-.9-9.4-4.3-16.4-13.1-21.8 11.3.7 18.5-3.5 24.3-12.6zm-37.8 116.2c-1.5-6.2-4.1-11.2-8.6-15.8 6.4-1.5 11.4-3.8 16.2-8.6 1.6 6.4 3.5 11.8 8.2 16.3-6.1 1.7-11.1 3.7-15.8 8.1zm.5 35.1c-5.3 1.4-9.7 3.6-14.2 7-1.9-5.1-3.6-9.9-7.8-14 5.5-1.9 10.3-3.6 14.7-8 1.4 6.2 3.9 10.6 7.3 15zm21.8 42.8c1.2 5.9 4.1 9.7 6.6 14.2-4.9 1.8-9.3 3.5-13.6 7.4-1.6-5.4-3.7-9.8-7.3-14.3 5.3-1.5 9.7-3.7 14.3-7.3zm-.2-35.8c5.4-1.7 9.7-3.7 14-7.4 1.5 5.3 3.6 9.9 7.2 14.2-5.2 1.8-9.6 3.9-13.9 7.1-1.8-5-3.9-9.4-7.3-13.9zm-8.7-83c-1.5-7.7-4.3-13.6-10.5-18.5 8.3-1.1 14.6-4 19.9-11 .1 8.5 3.1 14.4 8.7 19.9-6.9 1.4-12.9 3.6-18.1 9.6zm-18.2-90.7c-1.3 11.3 1.9 19 10.7 25.5-9.6.2-16.5 3.4-22.5 11-.6-9.8-4.2-16.9-12.9-22.3 11.2.1 18.9-3.9 24.7-14.2zm-25.4 77.8c-.4-8.3-4-14.2-10.3-19.8 8.5-.8 14.9-3.8 20.2-11.1.7 8.6 3.3 15.2 10.1 20.8-8.5.7-14.7 3.7-20 10.1zm-4.9 125.2c5.6-1.8 9.8-3.9 14.3-7.3 1.5 5.2 3.6 9.6 7.1 13.9-5.2 1.7-9.6 4-13.9 7.1-1.9-5-3.6-9.5-7.5-13.7zm22.4 113.8c-1.7-5.3-3.8-9.6-7.2-14.1 5.2-1.5 9.6-3.6 13.9-7.1 1.7 5.2 4 9.6 7.1 13.9-5 1.9-9.3 3.8-13.8 7.3zm14.3-43.2c-2.4-4.6-3.6-9.5-7.9-13.7 5.6-1.6 10-3.8 14.3-7.2 1.7 5.2 4 9.6 7.1 13.9-5 1.8-9.3 3.7-13.5 7zm14.7 100c-1.7-5-3.9-9.4-7-13.7 5-1.8 9.3-3.7 13.8-7.2 1.6 5.1 3.6 9.6 7.3 14-5.6 1.5-9.7 4-14.1 6.9zm13.8-42.6c-1.2-5.9-4.1-9.7-6.6-14.2 4.9-1.7 9.2-3.7 13.7-7.1 1.6 5.1 3.6 9.6 7.2 14-5.3 1.6-9.7 3.7-14.3 7.3zm29.1 92.7c-5.1 1.5-9.5 3.7-13.8 7.1-1.6-5.3-4-9.6-7-14 5-1.7 9.3-3.7 13.8-7.1 1.5 5.4 3.8 9.6 7 14zm-1-143.2c-5.1 2-9.6 3.8-13.7 7.4-2-5.1-3.6-9.7-7.6-13.9 5.6-1.8 9.8-3.9 14.3-7.3 1.5 5.2 3.6 9.6 7 13.8zm-14.9-135.6c-2-5.6-4.1-10.4-8.5-14.7 6.1-1.5 11.2-3.7 15.7-8.8 1 6.5 3.5 11.3 7.4 16.3-5.4 1.4-10.1 3.5-14.6 7.2zm13.3-41.2c-1.5-7-4.1-12.5-10-17.3 8-1.1 14.2-4.1 19.2-10.8.1 8.3 2.9 14.3 8.7 19.6-7.1.8-12.7 3.4-17.9 8.5zm43.3 13.9c-1.5-6.9-4.1-12.5-9.7-17.1 7.3-.9 12.8-3.8 18.1-9.6.8 7.7 3.4 13.1 8.5 18.3-6.5 1.2-11.9 3.4-16.9 8.4zm12.9-40.7c-.5-9.3-4.6-15.5-11.9-21 9-.6 16.2-3.2 21.9-11.5.7 9.6 3.8 16.3 11.5 22.1-9.2.7-16 3.5-21.5 10.4zm13.5-42.9c-.5-9.3-4.1-16.4-12.8-21.8 11-.1 18.8-3.8 24.6-14.4-1.1 11.4 2 19.2 10.5 25.4-11.1 1.3-13.9 2.7-22.3 10.8zm260.2-166.5c-11 .9-19 9.7-19 20.4.1 11 8.7 19.9 19.8 20.5 10.6.6 19.7-7.1 21.1-18.1-7.2-8-13.9-16.2-21.9-22.8zm-55.3 28.1c-11.6 0-21.4 9.9-21.2 21.4.1 11.4 9.8 20.9 21.1 21 11.6 0 21.4-9.9 21.2-21.4-.1-11.4-9.7-21-21.1-21zm49.5 15.1c-8.6-2.9-16.3-.6-22.2 6-5.5 6.1-7.1 13.3-3.8 22 12.9-5.5 27-5.5 40.2-11.5-1.4-8.5-6.3-13.9-14.2-16.5zm-766.3-149.9c-10-.2-18.8 8.3-19.2 18.5-.4 10.1 8.5 19.3 18.8 19.5 10 .2 18.8-8.3 19.2-18.5.4-10.1-8.5-19.3-18.8-19.5zm-72.9 70.9c-10.6 1.2-18.9 10.5-18.4 20.7.4 10.3 8.6 18.6 18.3 18.7l21.2-23c-2.1-10.4-11.4-17.5-21.1-16.4zm16-42.2c-10.8-.1-19.4 8.3-19.6 19-.1 10.8 8.3 19.4 19 19.6 10.8.1 19.4-8.3 19.6-19 .1-10.8-8.3-19.5-19-19.6zm45.3 14.1c-7.9-1-14.5 1.9-18.9 8.7-4 6.2-4.3 12.7-.6 19.9 11.2-6.6 22.8-11.7 34.7-16.8-3-7.1-8.1-10.9-15.2-11.8zm-91.3 80.4c-5.5 9.2-3.2 21 5.5 26.7 6.3-11.8 11.5-24.2 20.3-34.4-8.9-4.8-20.4-1.3-25.8 7.7zm156.5-105.9c-8.5-5.9-20.1-3.9-26.2 4.4s-4.8 19 3.3 25.4c9.2-2.6 18.7-4.3 28.2-5.2 5.3-8.2 2.9-19-5.3-24.6zm227.1 233.5c2.1-9.3-1.9-19.4-10.4-24-12.9-7-23.5-2.8-32.1 8.9-.6-14.8-6.9-23.3-18.5-25.6-9.4-1.9-19.7 3.4-24 12.4-2.6 5.5-2.9 11.2-.9 17 2 5.7 6 9.7 11.7 13-11.1-1.4-18.9 2.6-25.3 11.8.7-11.8-4.2-19.5-14.7-24.9 11.6 2 20.7-2.1 25.5-10.6 4.6-8.2 3.5-18.2-2.6-25.1-6.2-7.1-15.3-9.3-24.7-5.6l-9.1 21.8c-3.5 8.8-2.5 11.4 5.5 16.9.7.5 2 .4 1.8 1.9-5.1-.3-10.1-.4-14.8 2.7-4.1 9.8-6.5 20.4-8.5 30.7 1.1 3.9 4.6 5.6 6.6 8.4-2.7.7-5.4-.3-8.1 2.9.7 27.3 6.8 55.2 3.9 85.1l7.5-5.4c.6 6.2 3.6 11 7.6 16.6-7.3-.1-10.9 6.3-17.2 7-3.6 12-7.5 24.1 4.3 36.3-8.3-.7-11.7 6.4-18.6 6l-8.3 23c2.2-.4 3.4-.7 4.9-1 .7 5.5 3.8 9.6 6.7 14.3-5.6 1.2-9.5 4-13.4 6.3-1.9-1-1.1-3.5-3.3-4.1-5.4 13.8-8.1 27.5 2.8 40.3-4.9 2.2-9.5 3-11.5 6l-3.8 19.1c-1 6-4.9 12.1 1.2 17.8l-5.1 2.7c-4.9 28.5-11.3 56.6-20.1 84.2-4.7 14.7-11.9 28.3-17.9 42.4-2.8 6.6-7.1 12.9-10.2 19.6-2.1 4.4-.7 8.2 2.4 11.8 11.6 12.8 26.1 12.6 41.3 9.4 4.5-1 9.6-1.8 11.4-6.7 4.8-13.3 7.7-27 10.6-40.8 2.4-11.2 2-23.1 7.2-33.7l20-38.9c8-14.6 16.8-28.9 27.4-41.9 5.9-7.2 12.1-14.3 16.1-22.8-1.4-2.4-2.6-4.3-4-6.6 19.7-8.5 23.5-20.3 14.5-43.2 3-1.8 7.1-1.8 10.4-4.9-5.8-60.2 15.6-112.4 46.2-160.7-.2-4.3-3.6-5.3-4.7-8.4 14.6.3 18.4-11.8 21.9-21.4 3.1-8.6-3.1-16.4-10.9-21.9 13.5-1.9 21-7.8 23.3-18.1zm-102.1 21.7c.4 9.2 3.2 16.2 11.1 22-9.5 0-15.7 3.3-21.2 9.7-1-8.6-4.3-15.4-12.1-20.5 9.5.1 16.4-3.3 22.2-11.2zm-23.5 72.2c-1.5-7.1-4.3-12.4-9.7-17.1 7.6-1.1 13.5-4 18.6-10.3.5 8 3.3 13.8 8.7 19.1-6.8.8-12.1 3.5-17.6 8.3zm-67.2 356.3c-1.6-5.4-3.9-9.6-7-14 5.1-1.5 9.5-3.7 13.8-7.1 1.6 5.3 4 9.6 7 14-5.1 1.7-9.4 3.7-13.8 7.1zm13.8-42.8c-1.2-5.9-4.1-9.7-6.6-14.2 4.9-1.6 9.2-3.7 13.7-7.1 1.5 5.2 3.6 9.6 7.2 14-5.4 1.6-9.7 3.8-14.3 7.3zm14.2-42.9c-1.7-5.4-3.7-9.9-7.2-14.1 5.1-2 9.7-3.7 13.9-7.4 1.7 5.4 4 9.7 7 14-4.9 1.9-9.4 3.6-13.7 7.5zm14.1-43.5c-1.9-4.9-3.5-9.4-7.5-13.7 5.4-1.8 9.9-3.7 14.3-7.4 1.6 5.6 4 9.7 6.9 14.1-5.1 1.7-9.4 4-13.7 7zm14-42.8c-1.7-5.2-4-9.6-7.1-13.9 5-1.8 9.3-3.7 13.7-7.2 1.8 5.2 3.7 9.6 7.5 14-5.4 1.6-9.8 3.7-14.1 7.1zm13.9-42.9c-1.7-5.1-3.6-9.6-7.4-14 5.6-1.6 9.7-3.9 14.1-7 1.7 5 3.9 9.4 7 13.7-4.9 1.8-9.2 3.7-13.7 7.3zm14-43.3c-1.7-5-3.7-9.3-7.1-13.8 5.4-1.6 9.6-3.9 14-7 1.5 5.1 3.7 9.5 7.1 13.8-5.4 1.7-9.6 4.1-14 7zm14.1-42.7c-1.9-5.5-4-10.1-7.9-14.6 5.5-2 10.4-4.2 14.6-8.8 1.6 6.4 3.6 11.6 7.9 16.1-5.7 1.6-10.3 3.6-14.6 7.3zm12.5-40.6c-1.2-7.3-4.1-12.7-9.3-17.8 7.6-1.2 13.2-4.2 18.3-10.6.9 7.6 3.1 13.7 8.5 18.9-7.2 1.5-12.8 4-17.5 9.5zm13-40.2c-.4-8.8-3.4-15.4-10.7-21.1 9.6-.8 16.3-4.5 21.5-12.9.1 9.2 2.6 16.2 9.7 22.5-8.9 1.1-15.2 4.3-20.5 11.5zm12.9-39.1c1.3-11.4-2.6-19.4-12.2-25.9 11.3.3 18.7-3.9 24.6-14-1.2 11.1 1.9 18.9 10.5 25.1-10.4 1-18 4.9-22.9 14.8zm5.4-69.8c12.2 0 21.4-9.3 21.4-21.4 0-12.2-9.3-21.4-21.4-21.4-12.2 0-21.4 9.3-21.4 21.4s9.2 21.4 21.4 21.4zm107.6 14.3c4.2-11.1-1.2-23.5-12.2-28.1-11-4.5-23.6.5-28.5 11.3-4.6 10.2-.8 22.4 8.9 27.3l7.5-11.4 1.8 14.1c8.4 2.8 18.9-3.6 22.5-13.2zm-456.9-54.4c-2.7 8.2-.3 17.2 5.8 20.9l13.4-34.9c-8.3-.7-16.4 5.3-19.2 14zm346.5-397.8c7.7-.1 13.5-6 13.3-13.8-.1-7.5-5.9-13.2-13.4-13.2-7.7 0-13.6 5.8-13.6 13.5s5.9 13.5 13.7 13.5zm281.5 356.3c-.1-11.4-9.5-20.6-20.9-20.5s-20.6 9.5-20.5 20.9 9.5 20.6 20.9 20.5c11.4-.2 20.6-9.6 20.5-20.9zm51.5 93c11.9-.2 21.5-10 21.6-21.8 0-12-10.1-22-22-21.8s-21.5 10-21.6 21.8c0 11.9 10.1 22 22 21.8zm35-64.7c.1-11.4-9.4-21.1-20.8-21.4-11.6-.2-21.5 9.4-21.6 21-.1 11.4 9.4 21.1 20.8 21.4 11.5.3 21.5-9.4 21.6-21zm-78.1 50.3c12.2 0 21.4-9.4 21.3-21.6-.1-12.1-9.5-21.3-21.7-21.2-11.9.1-21 9.4-21 21.4-.1 12.1 9.2 21.4 21.4 21.4zm91.2-93.2c.1-11.5-8.6-20.5-19.9-20.6-11.7-.1-20.7 8.7-20.7 20.3 0 11.4 8.8 20.3 20.2 20.3 11.4.1 20.3-8.6 20.4-20zm43.2 13.6c-.1-11.6-9.1-20.4-20.7-20.3s-20.4 9.1-20.3 20.7 9.1 20.4 20.7 20.3 20.4-9.2 20.3-20.7zm22.2 35.2c11.2.3 21.1-9.4 21.3-20.8.2-11.2-9.6-21.1-20.9-21.2-11.1-.1-20.7 9.3-21.1 20.5-.4 11.1 9.3 21.2 20.7 21.5zM1669 695.8c10.6 0 19.3-8.7 19.3-19.4 0-10.6-8.8-19.3-19.5-19.2-10.4.1-19 8.7-19 19.1-.1 10.7 8.6 19.5 19.2 19.5zm6.1 23.9c.1-10.7-9.3-20.1-20-20.2s-20.1 9.3-20.2 20 9.3 20.1 20 20.2c10.7 0 20.1-9.3 20.2-20zm-248.3 137.8c11.7.2 22-10 22.1-21.8s-10.2-22-22-22c-11.7.1-21.6 9.8-21.8 21.6-.3 11.6 9.8 22 21.7 22.2zm-85.8-27.6c11.8 0 21.2-9.4 21.3-21.2 0-11.8-9.3-21.3-21.1-21.4s-21.4 9.2-21.5 20.9c-.1 12.1 9.3 21.7 21.3 21.7zm-9.7-79.2c0-11.5-8.7-20.4-20.1-20.4-11.5-.1-20.4 8.6-20.5 20-.1 11.7 8.7 20.7 20.3 20.7 11.4-.1 20.3-8.9 20.3-20.3zm-13.1 43.8c0-11.6-9.8-21.3-21.4-21.2s-21.2 9.9-21.1 21.5c.2 11.4 9.8 20.9 21.1 20.9 11.7.1 21.4-9.6 21.4-21.2zm-35.2 65c11.8 0 22-10.3 21.9-22.1-.1-11.9-10.5-22-22.2-21.7s-21.5 10.1-21.6 21.8c-.1 11.8 10.1 22 21.9 22zm100.9-16.5c12.2 0 21.5-9.3 21.4-21.5 0-12-9.2-21.2-21.1-21.3-12.3-.1-21.6 9.1-21.7 21.2 0 12.2 9.3 21.5 21.4 21.6zm85.6 28.7c11.9.4 22.5-10 22.6-22 .1-11.8-10-22-21.9-22.2-11.8-.2-22.1 9.8-22.3 21.8-.3 11.6 9.7 22 21.6 22.4zm248.7-138.3c-.1-11.1-9.4-20.2-20.5-20.1-10.9.2-19.9 9.3-19.9 20.2 0 11.1 9.2 20.3 20.3 20.3s20.2-9.3 20.1-20.4zm-466.8-370.2c5.7-.1 9.8-3.1 11.6-8.6 1.5-4.6 1-9.1-3.5-12.9l-9.6 6.9c-3.3 2.3-6.7 4.4-10.3 6.7 2.2 5.7 6.4 8 11.8 7.9zm123.3 401.5c.1-11.3-9.2-20.7-20.5-20.8s-20.7 9.2-20.8 20.5 9.2 20.7 20.5 20.8 20.7-9.1 20.8-20.5zm130.6 41.9c0-11.7-9.4-21.2-21.2-21.3-11.8 0-21.3 9.3-21.4 21-.1 11.8 9.2 21.4 20.9 21.5 12 .2 21.7-9.3 21.7-21.2zm-154.8-606.7c4-.7 6.8-3 6.7-7.5s-2.7-7.1-7.2-7.1c-4.8 0-7.4 2.9-7.2 7.6.1 4.6 3 6.7 7.7 7zm14.4 103.7c5.6.1 10.9-5 11.2-10.7.2-5.8-5.1-11.3-10.9-11.4-5.6-.1-10.9 5-11.2 10.7-.3 5.8 5 11.3 10.9 11.4zm-29.3-59c5.7.2 8.7-3.4 9.6-8.8-.6-5.4-3.4-9-8.8-9.2-5.6-.2-9.2 3.3-9.4 8.9-.1 5.3 3.3 8.8 8.6 9.1zm43.7 14.4c6-.3 8.8-3.8 9.2-8.6-.1-6.3-4.1-10.4-9.5-10.2-5.9.2-9.2 3.4-9.4 9.3-.3 5.6 4.1 9.8 9.7 9.5zm-57.1 29.9c6-.1 10.3-4.6 10.2-10.6s-4.6-10.3-10.6-10.2-10.3 4.6-10.2 10.6 4.6 10.3 10.6 10.2zm-28.3 88.7c6.9.1 13.1-6.2 13.1-13.1s-6.3-13.1-13.2-13c-6.8.1-12.7 6.1-12.9 12.8-.1 6.9 6.1 13.2 13 13.3zm88.2-23.9c2 6.3 9.1 9.9 15.7 7.9 6-1.7 9.3-7.5 7.7-13.6-5.5-2.3-12.2-3.3-14.7-10.4-7.7 3-10.9 9.2-8.7 16.1zm-102.2 68c7.4.1 14.1-6.4 14.3-13.8s-6.2-14.1-13.7-14.4-14.5 6.5-14.5 14.1c-.1 7.4 6.4 14 13.9 14.1zm27.7-88.3c6.4.2 12.3-5.5 12.2-11.9 0-6.3-5.5-11.8-11.8-11.9-6.2-.1-11.8 5.4-12 11.7 0 6.2 5.3 11.9 11.6 12.1zm115.3 87.2c7.4.1 14.1-6.5 14.2-14 .1-7.4-6.5-14.1-14-14.2-7.4-.1-14.1 6.5-14.2 14 0 7.5 6.6 14.2 14 14.2zm145.1 145c9.2 0 17.3-8.2 17.1-17.3s-8-16.8-17.1-16.8c-9.2 0-17.3 8.2-17.1 17.3s8.1 16.8 17.1 16.8zm127 81.4l-24-27.3c-8.3 8-8.5 19.6-1.2 26.9 7 7.1 18.4 7.3 25.2.4zm-156.9-139.5c8.5-.1 16.1-7.8 15.8-16.1-.2-6.2-10.1-15.9-16.1-15.8-8.5.1-15.9 7.7-15.8 16.1.2 8.6 7.7 15.9 16.1 15.8zm101.3 130.3c10.2.2 18.6-7.7 18.8-17.8.2-10.2-7.8-18.6-18-18.7-10-.1-18.3 7.7-18.6 17.6-.2 10.2 7.8 18.7 17.8 18.9zm-31.9-58.4c6.9 1.5 12.6-.9 17.3-6.6-7.3-8.9-13.4-18.2-22.4-25.3-6.7 4.4-9.6 10.3-8.5 17.6 1.3 7.7 6 12.7 13.6 14.3zm-141.4-144.6c7.8 0 14.2-6.5 14.2-14.3s-6.5-14.2-14.3-14.2-14.2 6.5-14.2 14.3c0 7.9 6.4 14.3 14.3 14.2zm-37.1-61c5.2 4.1 10.9 4.1 16-.1 4.4-3.6 6.4-8.3 4.2-14-8.3-2.4-16.2-2-24.4 0-2.2 5.9-.2 10.6 4.2 14.1zm74.7 74.3c6.9 2.7 13.8.2 18.2-7.1l-11.3-20.6c-8.3-.4-14.2 3.8-15.7 10.6-1.7 7.4 2 14.4 8.8 17.1zm-26.5-57.5c5.1.9 9.8-.1 13.4-5.6-5.7-6.6-13.6-10.4-19.8-16.4-4.6 3.9-4.8 8.3-3.6 12.7 1.3 5.1 4.9 8.4 10 9.3z"/><path fill="none" stroke="currentColor" stroke-width="12" stroke-miterlimit="10" d="M1408.7 529c-11.6 1.7-23.7 5.4-35.8 8.7-1.1 19.9-5.8 36.8-8.9 60-4.7 36.4-52.6 3.3-51-45.5-12.6.4-45.2-14.1-55.2-25.3-8.4-8.7-19.5-27.7-6.8-30.2 21-4.6 38.4-6.6 56.8-7.5.5-21.1 2.6-42.6 6.8-65 8.9-50.5 81.5 33.1 74.7 47.2-2.6 5.4-5.3 11.2-7.4 17.4 26.8 2.9 64.1 10.4 71 24.8 5.2 11.2-33.7 13.7-44.2 15.4z"/><path d="M4388 821.9c-85.7-6.5-172.8 1.4-254.2 23.8-23.3 6.5-38.1 22.2-45.1 40.5-18.8-44.2-95.7-73.5-114.7-41.2-33.8 57.6-96.5 145.4-153.4 213.1-86.4 103.7-157.7 165.6-171.4 165.6-7.2 0 13-46.8 22.3-68.4 52.6-121 92.2-169.2 133.9-216 46.1-52.6-36.7-184.3-86.4-128.2-51.9 59.4-144.1 189.7-181.5 296.1-7.2-.8-15.8.4-25.9 4.1-85.7 31.7-264.2 107.3-352.1 99.4 10.8-43.9 35.3-88.6 85.7-159.1 23-32.4 91.4-97.9 135.4-111.6 8.6 11.5 13 23 17.3 39.6 6.5 25.9 42.5 45.4 69.8 45.4 38.2 0 56.9-32.4 41-90-17.3-62.6-24.5-134.6-112.3-134.6-41.8 0-75.6 13-103.7 29.5-100.6 57.9-198.7 174.2-236.8 283.1-4-37.4-28-73.7-81.5-104.6-41.8-23.8-87.8-22.3-133.9-21.6 32.4-20.9 70.6-38.9 93.6-43.9 3.6 3.6 7.9 6.5 10.8 7.9 30.2 22.3 38.2 37.4 82.8 35.3 27.4-1.4 58.3-33.8 28.1-79.2-34.6-51.8-42.5-97.9-122.4-97.9-49.8 0-160.4 52-230.2 109.8 8.5-32.9-29.6-91.3-101-96.8-85.7-6.5-172.8 1.4-254.2 23.8-56.9 15.8-63.4 86.4-28.1 116.6-13.7 20.9-28.1 43.9-39.6 64.1-31 16.6-49 43.9-43.2 81.4-20.5 41.6-38.8 85.4-56.5 135.9-11.7-56.4-78-91.7-120.6-114.3 95-36.7 207.4-94.3 199.4-181.4-8.6-88.6-204.5-135.4-277.2-135.4-32.4 0-49.7 2.2-82.1 9.4-51.1 11.5-79.2 71.3-53.3 105.8-62.6 88.6-96.5 171.4-129.6 282.2-23 77.8 77 199.4 103 112.3 13-43.2 23-69.8 40.3-117.4 83.5 20.2 207.4 65.5 258.5 91.4 32.3 16.5 56.3 4.5 62-21.3 12.2 38.6 57.9 87.6 97.8 72.4 61.9-23 240.5-53.3 306-53.3 85.7.7 31-112.3-54.7-113-72.7-.7-115.2 1.4-180 12.2 7.9-18 17.3-36.7 25.2-54 58.3-20.9 169.2-43.2 190.1-43.2 83.5 0 79.2-100.1-4.3-100.1l-117.4 1.4c10.1-13.7 20.9-27.4 30.2-41 63.4-11.5 138.2-20.2 189.4-15.8 6.2.6 11.5.3 16.3-.7-24 24.1-39 48.2-37.9 69.1 2.2 38.2 41 104.4 88.6 110.2 15.1 1.4 29.5 0 43.9-1.4 51.1-5.8 95.8-12.2 147.6-2.9-15.8 42.5-115.9 121-146.9 114.5-40.3-7.9-81.4-75.6-81.4-77-9.4-34.6-36-33.1-61.9-20.9-50.4 24.5 18 205.9 132.5 228.2 71.4 14.3 224.8-72 275.6-172-.6 9.8-.6 19.4.2 28.7 3.6 46.1 67 110.9 110.9 124.6 84.2 26.6 259.9-51.1 341.3-82.8 13.7-5.5 25.6-14.7 35.7-25.7 21.5 69.5 87.7 123.8 121.3 121.5 61.2-4.3 112.3-54.7 152.6-96.5 10.1 77 123.8 133.9 127.4 53.3 2.2-61.9 115.2-326.9 151.9-373.7 1.9-2.5 3.5-4.9 4.9-7.4 3.2 12.6 9.7 24.2 19.6 32.6-13.7 20.9-28.1 43.9-39.6 64.1-31 16.6-49 43.9-43.2 81.4-20.9 42.5-39.6 87.1-57.6 139-12.2 34.6 48.2 120.2 99.4 100.8 61.9-23 240.5-53.3 306-53.3 85.7.7 31-112.3-54.7-113-72.7-.7-115.2 1.4-180 12.2 7.9-18 17.3-36.7 25.2-54 58.3-20.9 169.2-43.2 190.1-43.2 83.5 0 79.2-100.1-4.3-100.1l-117.4 1.4c10.1-13.7 20.9-27.4 30.2-41 63.4-11.5 138.2-20.2 189.4-15.8 75.8 7 42-111.1-61-119zM1994.1 943.6c45.4.7 91.4 2.2 128.2 10.8-45.4 27.4-141.8 65.5-187.2 81.4 17.9-35.4 37.4-66.3 59-92.2zm-960.5-644.4C994 184 853.6 171.7 784.5 171.7c-23.8 0-46.1 0-75.6 2.2-58.3 3.6-68.4 67-50.4 103-56.1 88.7-87.5 163.3-122 262.8-13.9-17.3-36.4-29.8-65.2-28.1-66.2 4.3-132.5 1.4-197.3 18 27.4-62.6 58.3-117.4 94.3-177.1 16.6-26.6 39.6-49 56.9-75.6 33.8-51.1-72-122.4-105.1-71.3-9.4 13.7-18 23.8-26.6 33.8-18.7 23.8-139.7 218.9-172.8 344.9-13.7 53.3 25.9 133.9 87.8 113 50.4-16.6 97.2-32.4 144.7-44.6 46.8-12.2 95-20.9 149.8-24.5 3.1-.2 5.9-.6 8.7-1 .9 70.4 92.2 123.6 116.6 50l42.5-121c130.2-28.8 400.2-147.6 362.8-257zM740.5 400.7c18-33.1 38.2-65.5 61.9-99.4 31 0 75.6.7 105.8 7.2-28.7 36-98.5 69.1-167.7 92.2z"/></svg>